%TF.GenerationSoftware,KiCad,Pcbnew,8.0.3*%
%TF.CreationDate,2024-09-07T21:46:08+02:00*%
%TF.ProjectId,AT28C64B-circuit-second-sol,41543238-4336-4344-922d-636972637569,rev?*%
%TF.SameCoordinates,Original*%
%TF.FileFunction,Copper,L1,Top*%
%TF.FilePolarity,Positive*%
%FSLAX46Y46*%
G04 Gerber Fmt 4.6, Leading zero omitted, Abs format (unit mm)*
G04 Created by KiCad (PCBNEW 8.0.3) date 2024-09-07 21:46:08*
%MOMM*%
%LPD*%
G01*
G04 APERTURE LIST*
%TA.AperFunction,ComponentPad*%
%ADD10C,2.000000*%
%TD*%
%TA.AperFunction,ComponentPad*%
%ADD11O,2.000000X1.600000*%
%TD*%
%TA.AperFunction,ComponentPad*%
%ADD12R,2.000000X2.000000*%
%TD*%
%TA.AperFunction,ComponentPad*%
%ADD13O,2.000000X2.000000*%
%TD*%
%TA.AperFunction,ComponentPad*%
%ADD14R,2.400000X2.000000*%
%TD*%
%TA.AperFunction,ComponentPad*%
%ADD15O,2.400000X2.000000*%
%TD*%
%TA.AperFunction,ComponentPad*%
%ADD16R,2.000000X1.800000*%
%TD*%
%TA.AperFunction,ViaPad*%
%ADD17C,2.000000*%
%TD*%
%TA.AperFunction,Conductor*%
%ADD18C,0.800000*%
%TD*%
%TA.AperFunction,Conductor*%
%ADD19C,1.000000*%
%TD*%
G04 APERTURE END LIST*
D10*
%TO.P,R3,1*%
%TO.N,GND*%
X175420000Y-53050000D03*
D11*
%TO.P,R3,2*%
%TO.N,Net-(D3-K)*%
X185580000Y-53050000D03*
%TD*%
D10*
%TO.P,R1,1*%
%TO.N,GND*%
X175420000Y-42000000D03*
D11*
%TO.P,R1,2*%
%TO.N,Net-(D1-K)*%
X185580000Y-42000000D03*
%TD*%
D12*
%TO.P,LS161_2,1,~{MR}*%
%TO.N,Net-(LS161_1-~{MR})*%
X113380000Y-55000000D03*
D13*
%TO.P,LS161_2,2,CP*%
%TO.N,Net-(LS161_1-CP)*%
X115920000Y-55000000D03*
%TO.P,LS161_2,3,D0*%
%TO.N,GND*%
X118460000Y-55000000D03*
%TO.P,LS161_2,4,D1*%
X121000000Y-55000000D03*
%TO.P,LS161_2,5,D2*%
X123540000Y-55000000D03*
%TO.P,LS161_2,6,D3*%
X126080000Y-55000000D03*
%TO.P,LS161_2,7,CEP*%
%TO.N,VCC*%
X128620000Y-55000000D03*
%TO.P,LS161_2,8,GND*%
%TO.N,GND*%
X131160000Y-55000000D03*
%TO.P,LS161_2,9,~{PE}*%
%TO.N,VCC*%
X131160000Y-47380000D03*
%TO.P,LS161_2,10,CET*%
%TO.N,Net-(LS161_1-TC)*%
X128620000Y-47380000D03*
%TO.P,LS161_2,11,Q3*%
%TO.N,Net-(EEPROM1-A7)*%
X126080000Y-47380000D03*
%TO.P,LS161_2,12,Q2*%
%TO.N,Net-(EEPROM1-A6)*%
X123540000Y-47380000D03*
%TO.P,LS161_2,13,Q1*%
%TO.N,Net-(EEPROM1-A5)*%
X121000000Y-47380000D03*
%TO.P,LS161_2,14,Q0*%
%TO.N,Net-(EEPROM1-A4)*%
X118460000Y-47380000D03*
%TO.P,LS161_2,15,TC*%
%TO.N,Net-(LS161_2-TC)*%
X115920000Y-47380000D03*
%TO.P,LS161_2,16,VCC*%
%TO.N,VCC*%
X113380000Y-47380000D03*
%TD*%
D12*
%TO.P,D1,1,K*%
%TO.N,Net-(D1-K)*%
X189960000Y-42000000D03*
D10*
%TO.P,D1,2,A*%
%TO.N,VCC*%
X192500000Y-42000000D03*
%TD*%
D14*
%TO.P,EEPROM1,1*%
%TO.N,N/C*%
X143500000Y-73340000D03*
D15*
%TO.P,EEPROM1,2,A12*%
%TO.N,Net-(EEPROM1-A12)*%
X143500000Y-75880000D03*
%TO.P,EEPROM1,3,A7*%
%TO.N,Net-(EEPROM1-A7)*%
X143500000Y-78420000D03*
%TO.P,EEPROM1,4,A6*%
%TO.N,Net-(EEPROM1-A6)*%
X143500000Y-80960000D03*
%TO.P,EEPROM1,5,A5*%
%TO.N,Net-(EEPROM1-A5)*%
X143500000Y-83500000D03*
%TO.P,EEPROM1,6,A4*%
%TO.N,Net-(EEPROM1-A4)*%
X143500000Y-86040000D03*
%TO.P,EEPROM1,7,A3*%
%TO.N,Net-(EEPROM1-A3)*%
X143500000Y-88580000D03*
%TO.P,EEPROM1,8,A2*%
%TO.N,Net-(EEPROM1-A2)*%
X143500000Y-91120000D03*
%TO.P,EEPROM1,9,A1*%
%TO.N,Net-(EEPROM1-A1)*%
X143500000Y-93660000D03*
%TO.P,EEPROM1,10,A0*%
%TO.N,Net-(EEPROM1-A0)*%
X143500000Y-96200000D03*
%TO.P,EEPROM1,11,D0*%
%TO.N,/D0*%
X143500000Y-98740000D03*
%TO.P,EEPROM1,12,D1*%
%TO.N,/D1*%
X143500000Y-101280000D03*
%TO.P,EEPROM1,13,D2*%
%TO.N,/D2*%
X143500000Y-103820000D03*
%TO.P,EEPROM1,14,GND*%
%TO.N,GND*%
X143500000Y-106360000D03*
%TO.P,EEPROM1,15,D3*%
%TO.N,/D3*%
X158740000Y-106360000D03*
%TO.P,EEPROM1,16,D4*%
%TO.N,/D4*%
X158740000Y-103820000D03*
%TO.P,EEPROM1,17,D5*%
%TO.N,/D5*%
X158740000Y-101280000D03*
%TO.P,EEPROM1,18,D6*%
%TO.N,/D6*%
X158740000Y-98740000D03*
%TO.P,EEPROM1,19,D7*%
%TO.N,/D7*%
X158740000Y-96200000D03*
%TO.P,EEPROM1,20,~{CS}*%
%TO.N,Net-(EEPROM1-~{CS})*%
X158740000Y-93660000D03*
%TO.P,EEPROM1,21,A10*%
%TO.N,Net-(EEPROM1-A10)*%
X158740000Y-91120000D03*
%TO.P,EEPROM1,22,~{OE}*%
%TO.N,Net-(EEPROM1-~{OE})*%
X158740000Y-88580000D03*
%TO.P,EEPROM1,23,A11*%
%TO.N,Net-(EEPROM1-A11)*%
X158740000Y-86040000D03*
%TO.P,EEPROM1,24,A9*%
%TO.N,Net-(EEPROM1-A9)*%
X158740000Y-83500000D03*
%TO.P,EEPROM1,25,A8*%
%TO.N,Net-(EEPROM1-A8)*%
X158740000Y-80960000D03*
%TO.P,EEPROM1,26*%
%TO.N,N/C*%
X158740000Y-78420000D03*
%TO.P,EEPROM1,27,~{WE}*%
%TO.N,Net-(EEPROM1-~{WE})*%
X158740000Y-75880000D03*
%TO.P,EEPROM1,28,VCC*%
%TO.N,VCC*%
X158740000Y-73340000D03*
%TD*%
D12*
%TO.P,LS161_3,1,~{MR}*%
%TO.N,Net-(LS161_1-~{MR})*%
X148625000Y-54800000D03*
D13*
%TO.P,LS161_3,2,CP*%
%TO.N,Net-(LS161_1-CP)*%
X151165000Y-54800000D03*
%TO.P,LS161_3,3,D0*%
%TO.N,GND*%
X153705000Y-54800000D03*
%TO.P,LS161_3,4,D1*%
X156245000Y-54800000D03*
%TO.P,LS161_3,5,D2*%
X158785000Y-54800000D03*
%TO.P,LS161_3,6,D3*%
X161325000Y-54800000D03*
%TO.P,LS161_3,7,CEP*%
%TO.N,VCC*%
X163865000Y-54800000D03*
%TO.P,LS161_3,8,GND*%
%TO.N,GND*%
X166405000Y-54800000D03*
%TO.P,LS161_3,9,~{PE}*%
%TO.N,VCC*%
X166405000Y-47180000D03*
%TO.P,LS161_3,10,CET*%
%TO.N,Net-(LS161_2-TC)*%
X163865000Y-47180000D03*
%TO.P,LS161_3,11,Q3*%
%TO.N,Net-(EEPROM1-A11)*%
X161325000Y-47180000D03*
%TO.P,LS161_3,12,Q2*%
%TO.N,Net-(EEPROM1-A10)*%
X158785000Y-47180000D03*
%TO.P,LS161_3,13,Q1*%
%TO.N,Net-(EEPROM1-A9)*%
X156245000Y-47180000D03*
%TO.P,LS161_3,14,Q0*%
%TO.N,Net-(EEPROM1-A8)*%
X153705000Y-47180000D03*
%TO.P,LS161_3,15,TC*%
%TO.N,unconnected-(LS161_3-TC-Pad15)*%
X151165000Y-47180000D03*
%TO.P,LS161_3,16,VCC*%
%TO.N,VCC*%
X148625000Y-47180000D03*
%TD*%
D10*
%TO.P,R2,1*%
%TO.N,GND*%
X175420000Y-47500000D03*
D11*
%TO.P,R2,2*%
%TO.N,Net-(D2-K)*%
X185580000Y-47500000D03*
%TD*%
D12*
%TO.P,NANO1,1,D1/TX*%
%TO.N,unconnected-(NANO1-D1{slash}TX-Pad1)*%
X176500000Y-66840000D03*
D13*
%TO.P,NANO1,2,D0/RX*%
%TO.N,unconnected-(NANO1-D0{slash}RX-Pad2)*%
X176500000Y-69380000D03*
%TO.P,NANO1,3,~{RESET}*%
%TO.N,unconnected-(NANO1-~{RESET}-Pad3)*%
X176500000Y-71920000D03*
%TO.P,NANO1,4,GND*%
%TO.N,GND*%
X176500000Y-74460000D03*
%TO.P,NANO1,5,D2*%
%TO.N,Net-(D3-A)*%
X176500000Y-77000000D03*
%TO.P,NANO1,6,D3*%
%TO.N,Net-(LS161_1-CP)*%
X176500000Y-79540000D03*
%TO.P,NANO1,7,D4*%
%TO.N,Net-(LS161_1-~{MR})*%
X176500000Y-82080000D03*
%TO.P,NANO1,8,D5*%
%TO.N,Net-(EEPROM1-~{CS})*%
X176500000Y-84620000D03*
%TO.P,NANO1,9,D6*%
%TO.N,Net-(EEPROM1-~{OE})*%
X176500000Y-87160000D03*
%TO.P,NANO1,10,D7*%
%TO.N,Net-(EEPROM1-~{WE})*%
X176500000Y-89700000D03*
%TO.P,NANO1,11,D8*%
%TO.N,Net-(EEPROM1-A12)*%
X176500000Y-92240000D03*
%TO.P,NANO1,12,D9*%
%TO.N,/D0*%
X176500000Y-94780000D03*
%TO.P,NANO1,13,D10*%
%TO.N,/D1*%
X176500000Y-97320000D03*
%TO.P,NANO1,14,D11*%
%TO.N,/D2*%
X176500000Y-99860000D03*
%TO.P,NANO1,15,D12*%
%TO.N,/D3*%
X176500000Y-102400000D03*
%TO.P,NANO1,16,D13*%
%TO.N,Net-(D2-A)*%
X191740000Y-102400000D03*
%TO.P,NANO1,17,3V3*%
%TO.N,unconnected-(NANO1-3V3-Pad17)*%
X191740000Y-99860000D03*
%TO.P,NANO1,18,AREF*%
%TO.N,unconnected-(NANO1-AREF-Pad18)*%
X191740000Y-97320000D03*
%TO.P,NANO1,19,A0*%
%TO.N,unconnected-(NANO1-A0-Pad19)*%
X191740000Y-94780000D03*
%TO.P,NANO1,20,A1*%
%TO.N,/D4*%
X191740000Y-92240000D03*
%TO.P,NANO1,21,A2*%
%TO.N,/D5*%
X191740000Y-89700000D03*
%TO.P,NANO1,22,A3*%
%TO.N,/D6*%
X191740000Y-87160000D03*
%TO.P,NANO1,23,A4*%
%TO.N,/D7*%
X191740000Y-84620000D03*
%TO.P,NANO1,24,A5*%
%TO.N,unconnected-(NANO1-A5-Pad24)*%
X191740000Y-82080000D03*
%TO.P,NANO1,25,A6*%
%TO.N,unconnected-(NANO1-A6-Pad25)*%
X191740000Y-79540000D03*
%TO.P,NANO1,26,A7*%
%TO.N,unconnected-(NANO1-A7-Pad26)*%
X191740000Y-77000000D03*
%TO.P,NANO1,27,+5V*%
%TO.N,VCC*%
X191740000Y-74460000D03*
%TO.P,NANO1,28,~{RESET}*%
%TO.N,unconnected-(NANO1-~{RESET}-Pad28)*%
X191740000Y-71920000D03*
%TO.P,NANO1,29,GND*%
%TO.N,unconnected-(NANO1-GND-Pad29)*%
X191740000Y-69380000D03*
%TO.P,NANO1,30,VIN*%
%TO.N,unconnected-(NANO1-VIN-Pad30)*%
X191740000Y-66840000D03*
%TD*%
D12*
%TO.P,LS161_1,1,~{MR}*%
%TO.N,Net-(LS161_1-~{MR})*%
X125120000Y-97740000D03*
D13*
%TO.P,LS161_1,2,CP*%
%TO.N,Net-(LS161_1-CP)*%
X125120000Y-95200000D03*
%TO.P,LS161_1,3,D0*%
%TO.N,GND*%
X125120000Y-92660000D03*
%TO.P,LS161_1,4,D1*%
X125120000Y-90120000D03*
%TO.P,LS161_1,5,D2*%
X125120000Y-87580000D03*
%TO.P,LS161_1,6,D3*%
X125120000Y-85040000D03*
%TO.P,LS161_1,7,CEP*%
%TO.N,VCC*%
X125120000Y-82500000D03*
%TO.P,LS161_1,8,GND*%
%TO.N,GND*%
X125120000Y-79960000D03*
%TO.P,LS161_1,9,~{PE}*%
%TO.N,VCC*%
X117500000Y-79960000D03*
%TO.P,LS161_1,10,CET*%
X117500000Y-82500000D03*
%TO.P,LS161_1,11,Q3*%
%TO.N,Net-(EEPROM1-A3)*%
X117500000Y-85040000D03*
%TO.P,LS161_1,12,Q2*%
%TO.N,Net-(EEPROM1-A2)*%
X117500000Y-87580000D03*
%TO.P,LS161_1,13,Q1*%
%TO.N,Net-(EEPROM1-A1)*%
X117500000Y-90120000D03*
%TO.P,LS161_1,14,Q0*%
%TO.N,Net-(EEPROM1-A0)*%
X117500000Y-92660000D03*
%TO.P,LS161_1,15,TC*%
%TO.N,Net-(LS161_1-TC)*%
X117500000Y-95200000D03*
%TO.P,LS161_1,16,VCC*%
%TO.N,VCC*%
X117500000Y-97740000D03*
%TD*%
D12*
%TO.P,D2,1,K*%
%TO.N,Net-(D2-K)*%
X189460000Y-47500000D03*
D10*
%TO.P,D2,2,A*%
%TO.N,Net-(D2-A)*%
X192000000Y-47500000D03*
%TD*%
D16*
%TO.P,D3,1,K*%
%TO.N,Net-(D3-K)*%
X189725000Y-53000000D03*
D10*
%TO.P,D3,2,A*%
%TO.N,Net-(D3-A)*%
X192265000Y-53000000D03*
%TD*%
D17*
%TO.N,VCC*%
X130158000Y-51367600D03*
X147194000Y-51223700D03*
%TO.N,Net-(EEPROM1-A12)*%
X146212700Y-70466200D03*
X173178700Y-92446300D03*
%TO.N,/D1*%
X172950500Y-98890000D03*
X163848600Y-110210100D03*
%TO.N,Net-(EEPROM1-A11)*%
X160737400Y-43729600D03*
X165801400Y-80665600D03*
%TO.N,/D0*%
X150748900Y-76686100D03*
X168433400Y-93905000D03*
%TO.N,/D3*%
X162455400Y-107298800D03*
X170341800Y-100477200D03*
%TO.N,/D2*%
X152860400Y-110575900D03*
X179857900Y-101016200D03*
%TO.N,Net-(EEPROM1-~{WE})*%
X168603200Y-81404500D03*
X173148100Y-89200100D03*
%TO.N,GND*%
X159283600Y-59383700D03*
X128657400Y-90483500D03*
X139038000Y-101741400D03*
%TO.N,Net-(EEPROM1-A2)*%
X134537400Y-83549700D03*
X121370200Y-82820400D03*
%TO.N,Net-(EEPROM1-~{CS})*%
X170853500Y-85099500D03*
X170346300Y-89503000D03*
%TO.N,Net-(EEPROM1-A3)*%
X134585000Y-71126800D03*
X114245400Y-85040000D03*
%TO.N,Net-(EEPROM1-A4)*%
X136863000Y-79631600D03*
X122306900Y-73697500D03*
%TO.N,Net-(EEPROM1-A5)*%
X121063100Y-43140200D03*
X134591100Y-48947100D03*
%TO.N,Net-(LS161_1-~{MR})*%
X154533400Y-63080700D03*
X121350300Y-63357200D03*
X133531700Y-67320100D03*
%TO.N,Net-(LS161_1-TC)*%
X126364400Y-51367600D03*
X114266900Y-88392500D03*
%TO.N,Net-(LS161_1-CP)*%
X119505000Y-61089400D03*
X131094800Y-61089400D03*
X154711600Y-59739400D03*
%TD*%
D18*
%TO.N,VCC*%
X130158000Y-51367600D02*
X147050100Y-51367600D01*
X147050100Y-51367600D02*
X147194000Y-51223700D01*
%TO.N,Net-(EEPROM1-A12)*%
X170136900Y-92446300D02*
X173178700Y-92446300D01*
X147583200Y-69095700D02*
X161267100Y-69095700D01*
X163598200Y-85907600D02*
X170136900Y-92446300D01*
X161267100Y-69095700D02*
X163598200Y-71426800D01*
X163598200Y-71426800D02*
X163598200Y-85907600D01*
X146212700Y-70466200D02*
X147583200Y-69095700D01*
%TO.N,/D1*%
X172950500Y-101108200D02*
X163848600Y-110210100D01*
X172950500Y-98890000D02*
X172950500Y-101108200D01*
%TO.N,Net-(EEPROM1-A11)*%
X165801400Y-80665600D02*
X169524900Y-76942100D01*
X169524900Y-76942100D02*
X169524900Y-45131000D01*
X168123500Y-43729600D02*
X160737400Y-43729600D01*
X169524900Y-45131000D02*
X168123500Y-43729600D01*
%TO.N,/D0*%
X160605700Y-70729600D02*
X156705400Y-70729600D01*
X161996300Y-87467900D02*
X161996300Y-72120200D01*
X161996300Y-72120200D02*
X160605700Y-70729600D01*
X168433400Y-93905000D02*
X161996300Y-87467900D01*
X156705400Y-70729600D02*
X150748900Y-76686100D01*
%TO.N,/D3*%
X169277000Y-100477200D02*
X170341800Y-100477200D01*
X162455400Y-107298800D02*
X169277000Y-100477200D01*
%TO.N,/D2*%
X171275800Y-112411800D02*
X154696300Y-112411800D01*
X154696300Y-112411800D02*
X152860400Y-110575900D01*
X179857900Y-101016200D02*
X179857900Y-103829700D01*
X179857900Y-103829700D02*
X171275800Y-112411800D01*
%TO.N,Net-(EEPROM1-~{WE})*%
X170296100Y-81404500D02*
X173148100Y-84256500D01*
X168603200Y-81404500D02*
X170296100Y-81404500D01*
X173148100Y-84256500D02*
X173148100Y-89200100D01*
D19*
%TO.N,GND*%
X129279400Y-91105400D02*
X129901400Y-91727300D01*
X139038000Y-100864000D02*
X139038000Y-101741400D01*
X139721600Y-72286300D02*
X139721600Y-81907100D01*
X147177700Y-66811800D02*
X145196100Y-66811800D01*
X147179200Y-66810300D02*
X147177700Y-66811800D01*
X154349900Y-66810300D02*
X147179200Y-66810300D01*
X159283600Y-61876600D02*
X154349900Y-66810300D01*
X128657400Y-90483500D02*
X129279300Y-91105400D01*
X129901400Y-91727300D02*
X139038000Y-100864000D01*
X129279300Y-91105400D02*
X129279400Y-91105400D01*
X139721600Y-81907100D02*
X129901400Y-91727300D01*
X159283600Y-59383700D02*
X159283600Y-61876600D01*
X145196100Y-66811800D02*
X139721600Y-72286300D01*
D18*
%TO.N,Net-(EEPROM1-A2)*%
X128068700Y-77081000D02*
X134537400Y-83549700D01*
X121370200Y-82820400D02*
X121370200Y-78865300D01*
X123154500Y-77081000D02*
X128068700Y-77081000D01*
X121370200Y-78865300D02*
X123154500Y-77081000D01*
%TO.N,Net-(EEPROM1-~{CS})*%
X170346300Y-89503000D02*
X170346300Y-85606700D01*
X170346300Y-85606700D02*
X170853500Y-85099500D01*
%TO.N,Net-(EEPROM1-A3)*%
X121612900Y-71126800D02*
X134585000Y-71126800D01*
X114245400Y-78494300D02*
X121612900Y-71126800D01*
X114245400Y-85040000D02*
X114245400Y-78494300D01*
%TO.N,Net-(EEPROM1-A4)*%
X136863000Y-79631600D02*
X130928900Y-73697500D01*
X130928900Y-73697500D02*
X122306900Y-73697500D01*
%TO.N,Net-(EEPROM1-A5)*%
X134591100Y-46433900D02*
X134591100Y-48947100D01*
X131297400Y-43140200D02*
X134591100Y-46433900D01*
X121063100Y-43140200D02*
X131297400Y-43140200D01*
%TO.N,Net-(LS161_1-~{MR})*%
X121350300Y-63357200D02*
X129568800Y-63357200D01*
X154533400Y-63080700D02*
X137771100Y-63080700D01*
X129568800Y-63357200D02*
X133531700Y-67320100D01*
X137771100Y-63080700D02*
X133531700Y-67320100D01*
%TO.N,Net-(LS161_1-TC)*%
X110563000Y-53184600D02*
X110563000Y-84688600D01*
X126364400Y-51367600D02*
X112380000Y-51367600D01*
X110563000Y-84688600D02*
X114266900Y-88392500D01*
X112380000Y-51367600D02*
X110563000Y-53184600D01*
%TO.N,Net-(LS161_1-CP)*%
X153361600Y-61089400D02*
X154711600Y-59739400D01*
X131094800Y-61089400D02*
X153361600Y-61089400D01*
X119505000Y-61089400D02*
X131094800Y-61089400D01*
%TD*%
M02*
