M48
; DRILL file {KiCad 8.0.3} date 2024-09-07T21:46:06+0200
; FORMAT={-:-/ absolute / metric / decimal}
; #@! TF.CreationDate,2024-09-07T21:46:06+02:00
; #@! TF.GenerationSoftware,Kicad,Pcbnew,8.0.3
; #@! TF.FileFunction,MixedPlating,1,2
FMAT,2
METRIC
; #@! TA.AperFunction,Plated,PTH,ViaDrill
T1C1.000
; #@! TA.AperFunction,Plated,PTH,ComponentDrill
T2C1.000
%
G90
G05
T1
X114.245Y-85.04
X114.267Y-88.392
X119.505Y-61.089
X121.063Y-43.14
X121.35Y-63.357
X121.37Y-82.82
X122.307Y-73.697
X126.364Y-51.368
X128.657Y-90.483
X130.158Y-51.368
X131.095Y-61.089
X133.532Y-67.32
X134.537Y-83.55
X134.585Y-71.127
X134.591Y-48.947
X136.863Y-79.632
X139.038Y-101.741
X146.213Y-70.466
X147.194Y-51.224
X150.749Y-76.686
X152.86Y-110.576
X154.533Y-63.081
X154.712Y-59.739
X159.284Y-59.384
X160.737Y-43.73
X162.455Y-107.299
X163.849Y-110.21
X165.801Y-80.666
X168.433Y-93.905
X168.603Y-81.404
X170.342Y-100.477
X170.346Y-89.503
X170.853Y-85.099
X172.951Y-98.89
X173.148Y-89.2
X173.179Y-92.446
X179.858Y-101.016
T2
X113.38Y-47.38
X113.38Y-55.0
X115.92Y-47.38
X115.92Y-55.0
X117.5Y-79.96
X117.5Y-82.5
X117.5Y-85.04
X117.5Y-87.58
X117.5Y-90.12
X117.5Y-92.66
X117.5Y-95.2
X117.5Y-97.74
X118.46Y-47.38
X118.46Y-55.0
X121.0Y-47.38
X121.0Y-55.0
X123.54Y-47.38
X123.54Y-55.0
X125.12Y-79.96
X125.12Y-82.5
X125.12Y-85.04
X125.12Y-87.58
X125.12Y-90.12
X125.12Y-92.66
X125.12Y-95.2
X125.12Y-97.74
X126.08Y-47.38
X126.08Y-55.0
X128.62Y-47.38
X128.62Y-55.0
X131.16Y-47.38
X131.16Y-55.0
X143.5Y-73.34
X143.5Y-75.88
X143.5Y-78.42
X143.5Y-80.96
X143.5Y-83.5
X143.5Y-86.04
X143.5Y-88.58
X143.5Y-91.12
X143.5Y-93.66
X143.5Y-96.2
X143.5Y-98.74
X143.5Y-101.28
X143.5Y-103.82
X143.5Y-106.36
X148.625Y-47.18
X148.625Y-54.8
X151.165Y-47.18
X151.165Y-54.8
X153.705Y-47.18
X153.705Y-54.8
X156.245Y-47.18
X156.245Y-54.8
X158.74Y-73.34
X158.74Y-75.88
X158.74Y-78.42
X158.74Y-80.96
X158.74Y-83.5
X158.74Y-86.04
X158.74Y-88.58
X158.74Y-91.12
X158.74Y-93.66
X158.74Y-96.2
X158.74Y-98.74
X158.74Y-101.28
X158.74Y-103.82
X158.74Y-106.36
X158.785Y-47.18
X158.785Y-54.8
X161.325Y-47.18
X161.325Y-54.8
X163.865Y-47.18
X163.865Y-54.8
X166.405Y-47.18
X166.405Y-54.8
X175.42Y-42.0
X175.42Y-47.5
X175.42Y-53.05
X176.5Y-66.84
X176.5Y-69.38
X176.5Y-71.92
X176.5Y-74.46
X176.5Y-77.0
X176.5Y-79.54
X176.5Y-82.08
X176.5Y-84.62
X176.5Y-87.16
X176.5Y-89.7
X176.5Y-92.24
X176.5Y-94.78
X176.5Y-97.32
X176.5Y-99.86
X176.5Y-102.4
X185.58Y-42.0
X185.58Y-47.5
X185.58Y-53.05
X189.46Y-47.5
X189.725Y-53.0
X189.96Y-42.0
X191.74Y-66.84
X191.74Y-69.38
X191.74Y-71.92
X191.74Y-74.46
X191.74Y-77.0
X191.74Y-79.54
X191.74Y-82.08
X191.74Y-84.62
X191.74Y-87.16
X191.74Y-89.7
X191.74Y-92.24
X191.74Y-94.78
X191.74Y-97.32
X191.74Y-99.86
X191.74Y-102.4
X192.0Y-47.5
X192.265Y-53.0
X192.5Y-42.0
M30
