%TF.GenerationSoftware,KiCad,Pcbnew,8.0.3*%
%TF.CreationDate,2024-09-08T09:23:32+02:00*%
%TF.ProjectId,AT28C64B-circuit-third-sol,41543238-4336-4344-922d-636972637569,rev?*%
%TF.SameCoordinates,Original*%
%TF.FileFunction,Legend,Top*%
%TF.FilePolarity,Positive*%
%FSLAX46Y46*%
G04 Gerber Fmt 4.6, Leading zero omitted, Abs format (unit mm)*
G04 Created by KiCad (PCBNEW 8.0.3) date 2024-09-08 09:23:32*
%MOMM*%
%LPD*%
G01*
G04 APERTURE LIST*
%ADD10C,0.150000*%
%ADD11C,0.120000*%
G04 APERTURE END LIST*
D10*
X180333333Y-51134819D02*
X180000000Y-50658628D01*
X179761905Y-51134819D02*
X179761905Y-50134819D01*
X179761905Y-50134819D02*
X180142857Y-50134819D01*
X180142857Y-50134819D02*
X180238095Y-50182438D01*
X180238095Y-50182438D02*
X180285714Y-50230057D01*
X180285714Y-50230057D02*
X180333333Y-50325295D01*
X180333333Y-50325295D02*
X180333333Y-50468152D01*
X180333333Y-50468152D02*
X180285714Y-50563390D01*
X180285714Y-50563390D02*
X180238095Y-50611009D01*
X180238095Y-50611009D02*
X180142857Y-50658628D01*
X180142857Y-50658628D02*
X179761905Y-50658628D01*
X180666667Y-50134819D02*
X181285714Y-50134819D01*
X181285714Y-50134819D02*
X180952381Y-50515771D01*
X180952381Y-50515771D02*
X181095238Y-50515771D01*
X181095238Y-50515771D02*
X181190476Y-50563390D01*
X181190476Y-50563390D02*
X181238095Y-50611009D01*
X181238095Y-50611009D02*
X181285714Y-50706247D01*
X181285714Y-50706247D02*
X181285714Y-50944342D01*
X181285714Y-50944342D02*
X181238095Y-51039580D01*
X181238095Y-51039580D02*
X181190476Y-51087200D01*
X181190476Y-51087200D02*
X181095238Y-51134819D01*
X181095238Y-51134819D02*
X180809524Y-51134819D01*
X180809524Y-51134819D02*
X180714286Y-51087200D01*
X180714286Y-51087200D02*
X180666667Y-51039580D01*
X180333333Y-39954819D02*
X180000000Y-39478628D01*
X179761905Y-39954819D02*
X179761905Y-38954819D01*
X179761905Y-38954819D02*
X180142857Y-38954819D01*
X180142857Y-38954819D02*
X180238095Y-39002438D01*
X180238095Y-39002438D02*
X180285714Y-39050057D01*
X180285714Y-39050057D02*
X180333333Y-39145295D01*
X180333333Y-39145295D02*
X180333333Y-39288152D01*
X180333333Y-39288152D02*
X180285714Y-39383390D01*
X180285714Y-39383390D02*
X180238095Y-39431009D01*
X180238095Y-39431009D02*
X180142857Y-39478628D01*
X180142857Y-39478628D02*
X179761905Y-39478628D01*
X181285714Y-39954819D02*
X180714286Y-39954819D01*
X181000000Y-39954819D02*
X181000000Y-38954819D01*
X181000000Y-38954819D02*
X180904762Y-39097676D01*
X180904762Y-39097676D02*
X180809524Y-39192914D01*
X180809524Y-39192914D02*
X180714286Y-39240533D01*
X135954819Y-52452381D02*
X135954819Y-52928571D01*
X135954819Y-52928571D02*
X134954819Y-52928571D01*
X135907200Y-52166666D02*
X135954819Y-52023809D01*
X135954819Y-52023809D02*
X135954819Y-51785714D01*
X135954819Y-51785714D02*
X135907200Y-51690476D01*
X135907200Y-51690476D02*
X135859580Y-51642857D01*
X135859580Y-51642857D02*
X135764342Y-51595238D01*
X135764342Y-51595238D02*
X135669104Y-51595238D01*
X135669104Y-51595238D02*
X135573866Y-51642857D01*
X135573866Y-51642857D02*
X135526247Y-51690476D01*
X135526247Y-51690476D02*
X135478628Y-51785714D01*
X135478628Y-51785714D02*
X135431009Y-51976190D01*
X135431009Y-51976190D02*
X135383390Y-52071428D01*
X135383390Y-52071428D02*
X135335771Y-52119047D01*
X135335771Y-52119047D02*
X135240533Y-52166666D01*
X135240533Y-52166666D02*
X135145295Y-52166666D01*
X135145295Y-52166666D02*
X135050057Y-52119047D01*
X135050057Y-52119047D02*
X135002438Y-52071428D01*
X135002438Y-52071428D02*
X134954819Y-51976190D01*
X134954819Y-51976190D02*
X134954819Y-51738095D01*
X134954819Y-51738095D02*
X135002438Y-51595238D01*
X135954819Y-50642857D02*
X135954819Y-51214285D01*
X135954819Y-50928571D02*
X134954819Y-50928571D01*
X134954819Y-50928571D02*
X135097676Y-51023809D01*
X135097676Y-51023809D02*
X135192914Y-51119047D01*
X135192914Y-51119047D02*
X135240533Y-51214285D01*
X134954819Y-49785714D02*
X134954819Y-49976190D01*
X134954819Y-49976190D02*
X135002438Y-50071428D01*
X135002438Y-50071428D02*
X135050057Y-50119047D01*
X135050057Y-50119047D02*
X135192914Y-50214285D01*
X135192914Y-50214285D02*
X135383390Y-50261904D01*
X135383390Y-50261904D02*
X135764342Y-50261904D01*
X135764342Y-50261904D02*
X135859580Y-50214285D01*
X135859580Y-50214285D02*
X135907200Y-50166666D01*
X135907200Y-50166666D02*
X135954819Y-50071428D01*
X135954819Y-50071428D02*
X135954819Y-49880952D01*
X135954819Y-49880952D02*
X135907200Y-49785714D01*
X135907200Y-49785714D02*
X135859580Y-49738095D01*
X135859580Y-49738095D02*
X135764342Y-49690476D01*
X135764342Y-49690476D02*
X135526247Y-49690476D01*
X135526247Y-49690476D02*
X135431009Y-49738095D01*
X135431009Y-49738095D02*
X135383390Y-49785714D01*
X135383390Y-49785714D02*
X135335771Y-49880952D01*
X135335771Y-49880952D02*
X135335771Y-50071428D01*
X135335771Y-50071428D02*
X135383390Y-50166666D01*
X135383390Y-50166666D02*
X135431009Y-50214285D01*
X135431009Y-50214285D02*
X135526247Y-50261904D01*
X135954819Y-48738095D02*
X135954819Y-49309523D01*
X135954819Y-49023809D02*
X134954819Y-49023809D01*
X134954819Y-49023809D02*
X135097676Y-49119047D01*
X135097676Y-49119047D02*
X135192914Y-49214285D01*
X135192914Y-49214285D02*
X135240533Y-49309523D01*
X136050057Y-48547619D02*
X136050057Y-47785714D01*
X135050057Y-47595237D02*
X135002438Y-47547618D01*
X135002438Y-47547618D02*
X134954819Y-47452380D01*
X134954819Y-47452380D02*
X134954819Y-47214285D01*
X134954819Y-47214285D02*
X135002438Y-47119047D01*
X135002438Y-47119047D02*
X135050057Y-47071428D01*
X135050057Y-47071428D02*
X135145295Y-47023809D01*
X135145295Y-47023809D02*
X135240533Y-47023809D01*
X135240533Y-47023809D02*
X135383390Y-47071428D01*
X135383390Y-47071428D02*
X135954819Y-47642856D01*
X135954819Y-47642856D02*
X135954819Y-47023809D01*
X194261905Y-39954819D02*
X194261905Y-38954819D01*
X194261905Y-38954819D02*
X194500000Y-38954819D01*
X194500000Y-38954819D02*
X194642857Y-39002438D01*
X194642857Y-39002438D02*
X194738095Y-39097676D01*
X194738095Y-39097676D02*
X194785714Y-39192914D01*
X194785714Y-39192914D02*
X194833333Y-39383390D01*
X194833333Y-39383390D02*
X194833333Y-39526247D01*
X194833333Y-39526247D02*
X194785714Y-39716723D01*
X194785714Y-39716723D02*
X194738095Y-39811961D01*
X194738095Y-39811961D02*
X194642857Y-39907200D01*
X194642857Y-39907200D02*
X194500000Y-39954819D01*
X194500000Y-39954819D02*
X194261905Y-39954819D01*
X195785714Y-39954819D02*
X195214286Y-39954819D01*
X195500000Y-39954819D02*
X195500000Y-38954819D01*
X195500000Y-38954819D02*
X195404762Y-39097676D01*
X195404762Y-39097676D02*
X195309524Y-39192914D01*
X195309524Y-39192914D02*
X195214286Y-39240533D01*
X147761905Y-68931009D02*
X148095238Y-68931009D01*
X148238095Y-69454819D02*
X147761905Y-69454819D01*
X147761905Y-69454819D02*
X147761905Y-68454819D01*
X147761905Y-68454819D02*
X148238095Y-68454819D01*
X148666667Y-68931009D02*
X149000000Y-68931009D01*
X149142857Y-69454819D02*
X148666667Y-69454819D01*
X148666667Y-69454819D02*
X148666667Y-68454819D01*
X148666667Y-68454819D02*
X149142857Y-68454819D01*
X149571429Y-69454819D02*
X149571429Y-68454819D01*
X149571429Y-68454819D02*
X149952381Y-68454819D01*
X149952381Y-68454819D02*
X150047619Y-68502438D01*
X150047619Y-68502438D02*
X150095238Y-68550057D01*
X150095238Y-68550057D02*
X150142857Y-68645295D01*
X150142857Y-68645295D02*
X150142857Y-68788152D01*
X150142857Y-68788152D02*
X150095238Y-68883390D01*
X150095238Y-68883390D02*
X150047619Y-68931009D01*
X150047619Y-68931009D02*
X149952381Y-68978628D01*
X149952381Y-68978628D02*
X149571429Y-68978628D01*
X151142857Y-69454819D02*
X150809524Y-68978628D01*
X150571429Y-69454819D02*
X150571429Y-68454819D01*
X150571429Y-68454819D02*
X150952381Y-68454819D01*
X150952381Y-68454819D02*
X151047619Y-68502438D01*
X151047619Y-68502438D02*
X151095238Y-68550057D01*
X151095238Y-68550057D02*
X151142857Y-68645295D01*
X151142857Y-68645295D02*
X151142857Y-68788152D01*
X151142857Y-68788152D02*
X151095238Y-68883390D01*
X151095238Y-68883390D02*
X151047619Y-68931009D01*
X151047619Y-68931009D02*
X150952381Y-68978628D01*
X150952381Y-68978628D02*
X150571429Y-68978628D01*
X151761905Y-68454819D02*
X151952381Y-68454819D01*
X151952381Y-68454819D02*
X152047619Y-68502438D01*
X152047619Y-68502438D02*
X152142857Y-68597676D01*
X152142857Y-68597676D02*
X152190476Y-68788152D01*
X152190476Y-68788152D02*
X152190476Y-69121485D01*
X152190476Y-69121485D02*
X152142857Y-69311961D01*
X152142857Y-69311961D02*
X152047619Y-69407200D01*
X152047619Y-69407200D02*
X151952381Y-69454819D01*
X151952381Y-69454819D02*
X151761905Y-69454819D01*
X151761905Y-69454819D02*
X151666667Y-69407200D01*
X151666667Y-69407200D02*
X151571429Y-69311961D01*
X151571429Y-69311961D02*
X151523810Y-69121485D01*
X151523810Y-69121485D02*
X151523810Y-68788152D01*
X151523810Y-68788152D02*
X151571429Y-68597676D01*
X151571429Y-68597676D02*
X151666667Y-68502438D01*
X151666667Y-68502438D02*
X151761905Y-68454819D01*
X152619048Y-69454819D02*
X152619048Y-68454819D01*
X152619048Y-68454819D02*
X152952381Y-69169104D01*
X152952381Y-69169104D02*
X153285714Y-68454819D01*
X153285714Y-68454819D02*
X153285714Y-69454819D01*
X154285714Y-69454819D02*
X153714286Y-69454819D01*
X154000000Y-69454819D02*
X154000000Y-68454819D01*
X154000000Y-68454819D02*
X153904762Y-68597676D01*
X153904762Y-68597676D02*
X153809524Y-68692914D01*
X153809524Y-68692914D02*
X153714286Y-68740533D01*
X160047618Y-58454819D02*
X159571428Y-58454819D01*
X159571428Y-58454819D02*
X159571428Y-57454819D01*
X160333333Y-58407200D02*
X160476190Y-58454819D01*
X160476190Y-58454819D02*
X160714285Y-58454819D01*
X160714285Y-58454819D02*
X160809523Y-58407200D01*
X160809523Y-58407200D02*
X160857142Y-58359580D01*
X160857142Y-58359580D02*
X160904761Y-58264342D01*
X160904761Y-58264342D02*
X160904761Y-58169104D01*
X160904761Y-58169104D02*
X160857142Y-58073866D01*
X160857142Y-58073866D02*
X160809523Y-58026247D01*
X160809523Y-58026247D02*
X160714285Y-57978628D01*
X160714285Y-57978628D02*
X160523809Y-57931009D01*
X160523809Y-57931009D02*
X160428571Y-57883390D01*
X160428571Y-57883390D02*
X160380952Y-57835771D01*
X160380952Y-57835771D02*
X160333333Y-57740533D01*
X160333333Y-57740533D02*
X160333333Y-57645295D01*
X160333333Y-57645295D02*
X160380952Y-57550057D01*
X160380952Y-57550057D02*
X160428571Y-57502438D01*
X160428571Y-57502438D02*
X160523809Y-57454819D01*
X160523809Y-57454819D02*
X160761904Y-57454819D01*
X160761904Y-57454819D02*
X160904761Y-57502438D01*
X161857142Y-58454819D02*
X161285714Y-58454819D01*
X161571428Y-58454819D02*
X161571428Y-57454819D01*
X161571428Y-57454819D02*
X161476190Y-57597676D01*
X161476190Y-57597676D02*
X161380952Y-57692914D01*
X161380952Y-57692914D02*
X161285714Y-57740533D01*
X162714285Y-57454819D02*
X162523809Y-57454819D01*
X162523809Y-57454819D02*
X162428571Y-57502438D01*
X162428571Y-57502438D02*
X162380952Y-57550057D01*
X162380952Y-57550057D02*
X162285714Y-57692914D01*
X162285714Y-57692914D02*
X162238095Y-57883390D01*
X162238095Y-57883390D02*
X162238095Y-58264342D01*
X162238095Y-58264342D02*
X162285714Y-58359580D01*
X162285714Y-58359580D02*
X162333333Y-58407200D01*
X162333333Y-58407200D02*
X162428571Y-58454819D01*
X162428571Y-58454819D02*
X162619047Y-58454819D01*
X162619047Y-58454819D02*
X162714285Y-58407200D01*
X162714285Y-58407200D02*
X162761904Y-58359580D01*
X162761904Y-58359580D02*
X162809523Y-58264342D01*
X162809523Y-58264342D02*
X162809523Y-58026247D01*
X162809523Y-58026247D02*
X162761904Y-57931009D01*
X162761904Y-57931009D02*
X162714285Y-57883390D01*
X162714285Y-57883390D02*
X162619047Y-57835771D01*
X162619047Y-57835771D02*
X162428571Y-57835771D01*
X162428571Y-57835771D02*
X162333333Y-57883390D01*
X162333333Y-57883390D02*
X162285714Y-57931009D01*
X162285714Y-57931009D02*
X162238095Y-58026247D01*
X163761904Y-58454819D02*
X163190476Y-58454819D01*
X163476190Y-58454819D02*
X163476190Y-57454819D01*
X163476190Y-57454819D02*
X163380952Y-57597676D01*
X163380952Y-57597676D02*
X163285714Y-57692914D01*
X163285714Y-57692914D02*
X163190476Y-57740533D01*
X163952381Y-58550057D02*
X164714285Y-58550057D01*
X164857143Y-57454819D02*
X165476190Y-57454819D01*
X165476190Y-57454819D02*
X165142857Y-57835771D01*
X165142857Y-57835771D02*
X165285714Y-57835771D01*
X165285714Y-57835771D02*
X165380952Y-57883390D01*
X165380952Y-57883390D02*
X165428571Y-57931009D01*
X165428571Y-57931009D02*
X165476190Y-58026247D01*
X165476190Y-58026247D02*
X165476190Y-58264342D01*
X165476190Y-58264342D02*
X165428571Y-58359580D01*
X165428571Y-58359580D02*
X165380952Y-58407200D01*
X165380952Y-58407200D02*
X165285714Y-58454819D01*
X165285714Y-58454819D02*
X165000000Y-58454819D01*
X165000000Y-58454819D02*
X164904762Y-58407200D01*
X164904762Y-58407200D02*
X164857143Y-58359580D01*
X180333333Y-45454819D02*
X180000000Y-44978628D01*
X179761905Y-45454819D02*
X179761905Y-44454819D01*
X179761905Y-44454819D02*
X180142857Y-44454819D01*
X180142857Y-44454819D02*
X180238095Y-44502438D01*
X180238095Y-44502438D02*
X180285714Y-44550057D01*
X180285714Y-44550057D02*
X180333333Y-44645295D01*
X180333333Y-44645295D02*
X180333333Y-44788152D01*
X180333333Y-44788152D02*
X180285714Y-44883390D01*
X180285714Y-44883390D02*
X180238095Y-44931009D01*
X180238095Y-44931009D02*
X180142857Y-44978628D01*
X180142857Y-44978628D02*
X179761905Y-44978628D01*
X180714286Y-44550057D02*
X180761905Y-44502438D01*
X180761905Y-44502438D02*
X180857143Y-44454819D01*
X180857143Y-44454819D02*
X181095238Y-44454819D01*
X181095238Y-44454819D02*
X181190476Y-44502438D01*
X181190476Y-44502438D02*
X181238095Y-44550057D01*
X181238095Y-44550057D02*
X181285714Y-44645295D01*
X181285714Y-44645295D02*
X181285714Y-44740533D01*
X181285714Y-44740533D02*
X181238095Y-44883390D01*
X181238095Y-44883390D02*
X180666667Y-45454819D01*
X180666667Y-45454819D02*
X181285714Y-45454819D01*
X181881905Y-62214819D02*
X181881905Y-61214819D01*
X181881905Y-61214819D02*
X182453333Y-62214819D01*
X182453333Y-62214819D02*
X182453333Y-61214819D01*
X182881905Y-61929104D02*
X183358095Y-61929104D01*
X182786667Y-62214819D02*
X183120000Y-61214819D01*
X183120000Y-61214819D02*
X183453333Y-62214819D01*
X183786667Y-62214819D02*
X183786667Y-61214819D01*
X183786667Y-61214819D02*
X184358095Y-62214819D01*
X184358095Y-62214819D02*
X184358095Y-61214819D01*
X185024762Y-61214819D02*
X185215238Y-61214819D01*
X185215238Y-61214819D02*
X185310476Y-61262438D01*
X185310476Y-61262438D02*
X185405714Y-61357676D01*
X185405714Y-61357676D02*
X185453333Y-61548152D01*
X185453333Y-61548152D02*
X185453333Y-61881485D01*
X185453333Y-61881485D02*
X185405714Y-62071961D01*
X185405714Y-62071961D02*
X185310476Y-62167200D01*
X185310476Y-62167200D02*
X185215238Y-62214819D01*
X185215238Y-62214819D02*
X185024762Y-62214819D01*
X185024762Y-62214819D02*
X184929524Y-62167200D01*
X184929524Y-62167200D02*
X184834286Y-62071961D01*
X184834286Y-62071961D02*
X184786667Y-61881485D01*
X184786667Y-61881485D02*
X184786667Y-61548152D01*
X184786667Y-61548152D02*
X184834286Y-61357676D01*
X184834286Y-61357676D02*
X184929524Y-61262438D01*
X184929524Y-61262438D02*
X185024762Y-61214819D01*
X186405714Y-62214819D02*
X185834286Y-62214819D01*
X186120000Y-62214819D02*
X186120000Y-61214819D01*
X186120000Y-61214819D02*
X186024762Y-61357676D01*
X186024762Y-61357676D02*
X185929524Y-61452914D01*
X185929524Y-61452914D02*
X185834286Y-61500533D01*
X182858095Y-101854819D02*
X182858095Y-102664342D01*
X182858095Y-102664342D02*
X182905714Y-102759580D01*
X182905714Y-102759580D02*
X182953333Y-102807200D01*
X182953333Y-102807200D02*
X183048571Y-102854819D01*
X183048571Y-102854819D02*
X183239047Y-102854819D01*
X183239047Y-102854819D02*
X183334285Y-102807200D01*
X183334285Y-102807200D02*
X183381904Y-102759580D01*
X183381904Y-102759580D02*
X183429523Y-102664342D01*
X183429523Y-102664342D02*
X183429523Y-101854819D01*
X183858095Y-102807200D02*
X184000952Y-102854819D01*
X184000952Y-102854819D02*
X184239047Y-102854819D01*
X184239047Y-102854819D02*
X184334285Y-102807200D01*
X184334285Y-102807200D02*
X184381904Y-102759580D01*
X184381904Y-102759580D02*
X184429523Y-102664342D01*
X184429523Y-102664342D02*
X184429523Y-102569104D01*
X184429523Y-102569104D02*
X184381904Y-102473866D01*
X184381904Y-102473866D02*
X184334285Y-102426247D01*
X184334285Y-102426247D02*
X184239047Y-102378628D01*
X184239047Y-102378628D02*
X184048571Y-102331009D01*
X184048571Y-102331009D02*
X183953333Y-102283390D01*
X183953333Y-102283390D02*
X183905714Y-102235771D01*
X183905714Y-102235771D02*
X183858095Y-102140533D01*
X183858095Y-102140533D02*
X183858095Y-102045295D01*
X183858095Y-102045295D02*
X183905714Y-101950057D01*
X183905714Y-101950057D02*
X183953333Y-101902438D01*
X183953333Y-101902438D02*
X184048571Y-101854819D01*
X184048571Y-101854819D02*
X184286666Y-101854819D01*
X184286666Y-101854819D02*
X184429523Y-101902438D01*
X185191428Y-102331009D02*
X185334285Y-102378628D01*
X185334285Y-102378628D02*
X185381904Y-102426247D01*
X185381904Y-102426247D02*
X185429523Y-102521485D01*
X185429523Y-102521485D02*
X185429523Y-102664342D01*
X185429523Y-102664342D02*
X185381904Y-102759580D01*
X185381904Y-102759580D02*
X185334285Y-102807200D01*
X185334285Y-102807200D02*
X185239047Y-102854819D01*
X185239047Y-102854819D02*
X184858095Y-102854819D01*
X184858095Y-102854819D02*
X184858095Y-101854819D01*
X184858095Y-101854819D02*
X185191428Y-101854819D01*
X185191428Y-101854819D02*
X185286666Y-101902438D01*
X185286666Y-101902438D02*
X185334285Y-101950057D01*
X185334285Y-101950057D02*
X185381904Y-102045295D01*
X185381904Y-102045295D02*
X185381904Y-102140533D01*
X185381904Y-102140533D02*
X185334285Y-102235771D01*
X185334285Y-102235771D02*
X185286666Y-102283390D01*
X185286666Y-102283390D02*
X185191428Y-102331009D01*
X185191428Y-102331009D02*
X184858095Y-102331009D01*
X114774819Y-90532381D02*
X114774819Y-91008571D01*
X114774819Y-91008571D02*
X113774819Y-91008571D01*
X114727200Y-90246666D02*
X114774819Y-90103809D01*
X114774819Y-90103809D02*
X114774819Y-89865714D01*
X114774819Y-89865714D02*
X114727200Y-89770476D01*
X114727200Y-89770476D02*
X114679580Y-89722857D01*
X114679580Y-89722857D02*
X114584342Y-89675238D01*
X114584342Y-89675238D02*
X114489104Y-89675238D01*
X114489104Y-89675238D02*
X114393866Y-89722857D01*
X114393866Y-89722857D02*
X114346247Y-89770476D01*
X114346247Y-89770476D02*
X114298628Y-89865714D01*
X114298628Y-89865714D02*
X114251009Y-90056190D01*
X114251009Y-90056190D02*
X114203390Y-90151428D01*
X114203390Y-90151428D02*
X114155771Y-90199047D01*
X114155771Y-90199047D02*
X114060533Y-90246666D01*
X114060533Y-90246666D02*
X113965295Y-90246666D01*
X113965295Y-90246666D02*
X113870057Y-90199047D01*
X113870057Y-90199047D02*
X113822438Y-90151428D01*
X113822438Y-90151428D02*
X113774819Y-90056190D01*
X113774819Y-90056190D02*
X113774819Y-89818095D01*
X113774819Y-89818095D02*
X113822438Y-89675238D01*
X114774819Y-88722857D02*
X114774819Y-89294285D01*
X114774819Y-89008571D02*
X113774819Y-89008571D01*
X113774819Y-89008571D02*
X113917676Y-89103809D01*
X113917676Y-89103809D02*
X114012914Y-89199047D01*
X114012914Y-89199047D02*
X114060533Y-89294285D01*
X113774819Y-87865714D02*
X113774819Y-88056190D01*
X113774819Y-88056190D02*
X113822438Y-88151428D01*
X113822438Y-88151428D02*
X113870057Y-88199047D01*
X113870057Y-88199047D02*
X114012914Y-88294285D01*
X114012914Y-88294285D02*
X114203390Y-88341904D01*
X114203390Y-88341904D02*
X114584342Y-88341904D01*
X114584342Y-88341904D02*
X114679580Y-88294285D01*
X114679580Y-88294285D02*
X114727200Y-88246666D01*
X114727200Y-88246666D02*
X114774819Y-88151428D01*
X114774819Y-88151428D02*
X114774819Y-87960952D01*
X114774819Y-87960952D02*
X114727200Y-87865714D01*
X114727200Y-87865714D02*
X114679580Y-87818095D01*
X114679580Y-87818095D02*
X114584342Y-87770476D01*
X114584342Y-87770476D02*
X114346247Y-87770476D01*
X114346247Y-87770476D02*
X114251009Y-87818095D01*
X114251009Y-87818095D02*
X114203390Y-87865714D01*
X114203390Y-87865714D02*
X114155771Y-87960952D01*
X114155771Y-87960952D02*
X114155771Y-88151428D01*
X114155771Y-88151428D02*
X114203390Y-88246666D01*
X114203390Y-88246666D02*
X114251009Y-88294285D01*
X114251009Y-88294285D02*
X114346247Y-88341904D01*
X114774819Y-86818095D02*
X114774819Y-87389523D01*
X114774819Y-87103809D02*
X113774819Y-87103809D01*
X113774819Y-87103809D02*
X113917676Y-87199047D01*
X113917676Y-87199047D02*
X114012914Y-87294285D01*
X114012914Y-87294285D02*
X114060533Y-87389523D01*
X114870057Y-86627619D02*
X114870057Y-85865714D01*
X114774819Y-85103809D02*
X114774819Y-85675237D01*
X114774819Y-85389523D02*
X113774819Y-85389523D01*
X113774819Y-85389523D02*
X113917676Y-85484761D01*
X113917676Y-85484761D02*
X114012914Y-85579999D01*
X114012914Y-85579999D02*
X114060533Y-85675237D01*
X194261905Y-45454819D02*
X194261905Y-44454819D01*
X194261905Y-44454819D02*
X194500000Y-44454819D01*
X194500000Y-44454819D02*
X194642857Y-44502438D01*
X194642857Y-44502438D02*
X194738095Y-44597676D01*
X194738095Y-44597676D02*
X194785714Y-44692914D01*
X194785714Y-44692914D02*
X194833333Y-44883390D01*
X194833333Y-44883390D02*
X194833333Y-45026247D01*
X194833333Y-45026247D02*
X194785714Y-45216723D01*
X194785714Y-45216723D02*
X194738095Y-45311961D01*
X194738095Y-45311961D02*
X194642857Y-45407200D01*
X194642857Y-45407200D02*
X194500000Y-45454819D01*
X194500000Y-45454819D02*
X194261905Y-45454819D01*
X195214286Y-44550057D02*
X195261905Y-44502438D01*
X195261905Y-44502438D02*
X195357143Y-44454819D01*
X195357143Y-44454819D02*
X195595238Y-44454819D01*
X195595238Y-44454819D02*
X195690476Y-44502438D01*
X195690476Y-44502438D02*
X195738095Y-44550057D01*
X195738095Y-44550057D02*
X195785714Y-44645295D01*
X195785714Y-44645295D02*
X195785714Y-44740533D01*
X195785714Y-44740533D02*
X195738095Y-44883390D01*
X195738095Y-44883390D02*
X195166667Y-45454819D01*
X195166667Y-45454819D02*
X195785714Y-45454819D01*
X194261905Y-51454819D02*
X194261905Y-50454819D01*
X194261905Y-50454819D02*
X194500000Y-50454819D01*
X194500000Y-50454819D02*
X194642857Y-50502438D01*
X194642857Y-50502438D02*
X194738095Y-50597676D01*
X194738095Y-50597676D02*
X194785714Y-50692914D01*
X194785714Y-50692914D02*
X194833333Y-50883390D01*
X194833333Y-50883390D02*
X194833333Y-51026247D01*
X194833333Y-51026247D02*
X194785714Y-51216723D01*
X194785714Y-51216723D02*
X194738095Y-51311961D01*
X194738095Y-51311961D02*
X194642857Y-51407200D01*
X194642857Y-51407200D02*
X194500000Y-51454819D01*
X194500000Y-51454819D02*
X194261905Y-51454819D01*
X195166667Y-50454819D02*
X195785714Y-50454819D01*
X195785714Y-50454819D02*
X195452381Y-50835771D01*
X195452381Y-50835771D02*
X195595238Y-50835771D01*
X195595238Y-50835771D02*
X195690476Y-50883390D01*
X195690476Y-50883390D02*
X195738095Y-50931009D01*
X195738095Y-50931009D02*
X195785714Y-51026247D01*
X195785714Y-51026247D02*
X195785714Y-51264342D01*
X195785714Y-51264342D02*
X195738095Y-51359580D01*
X195738095Y-51359580D02*
X195690476Y-51407200D01*
X195690476Y-51407200D02*
X195595238Y-51454819D01*
X195595238Y-51454819D02*
X195309524Y-51454819D01*
X195309524Y-51454819D02*
X195214286Y-51407200D01*
X195214286Y-51407200D02*
X195166667Y-51359580D01*
D11*
%TO.C,R3*%
X176460000Y-53050000D02*
X177230000Y-53050000D01*
X177230000Y-51680000D02*
X177230000Y-54420000D01*
X177230000Y-54420000D02*
X183770000Y-54420000D01*
X183770000Y-51680000D02*
X177230000Y-51680000D01*
X183770000Y-54420000D02*
X183770000Y-51680000D01*
X184540000Y-53050000D02*
X183770000Y-53050000D01*
%TO.C,R1*%
X176460000Y-42000000D02*
X177230000Y-42000000D01*
X177230000Y-40630000D02*
X177230000Y-43370000D01*
X177230000Y-43370000D02*
X183770000Y-43370000D01*
X183770000Y-40630000D02*
X177230000Y-40630000D01*
X183770000Y-43370000D02*
X183770000Y-40630000D01*
X184540000Y-42000000D02*
X183770000Y-42000000D01*
%TO.C,LS161_2*%
X112050000Y-48540000D02*
X112050000Y-50190000D01*
X112050000Y-52190000D02*
X112050000Y-53840000D01*
X112050000Y-53840000D02*
X132490000Y-53840000D01*
X132490000Y-48540000D02*
X112050000Y-48540000D01*
X132490000Y-53840000D02*
X132490000Y-48540000D01*
X112050000Y-50190000D02*
G75*
G02*
X112050000Y-52190000I0J-1000000D01*
G01*
%TO.C,D1*%
X189670000Y-40764000D02*
X189670000Y-40920000D01*
X189670000Y-43080000D02*
X189670000Y-43236000D01*
X189670000Y-40764484D02*
G75*
G02*
X192902335Y-40921392I1560000J-1235516D01*
G01*
X190189039Y-40920000D02*
G75*
G02*
X192271130Y-40920163I1040961J-1080000D01*
G01*
X192271130Y-43079837D02*
G75*
G02*
X190189039Y-43080000I-1041130J1079837D01*
G01*
X192902335Y-43078608D02*
G75*
G02*
X189670000Y-43235516I-1672335J1078608D01*
G01*
%TO.C,EEPROM1*%
X142060000Y-71950000D02*
X142060000Y-107750000D01*
X142060000Y-107750000D02*
X160180000Y-107750000D01*
X145060000Y-72010000D02*
X145060000Y-107690000D01*
X145060000Y-107690000D02*
X157180000Y-107690000D01*
X150120000Y-72010000D02*
X145060000Y-72010000D01*
X157180000Y-72010000D02*
X152120000Y-72010000D01*
X157180000Y-107690000D02*
X157180000Y-72010000D01*
X160180000Y-71950000D02*
X142060000Y-71950000D01*
X160180000Y-107750000D02*
X160180000Y-71950000D01*
X152120000Y-72010000D02*
G75*
G02*
X150120000Y-72010000I-1000000J0D01*
G01*
%TO.C,LS161_3*%
X147295000Y-48340000D02*
X147295000Y-49990000D01*
X147295000Y-51990000D02*
X147295000Y-53640000D01*
X147295000Y-53640000D02*
X167735000Y-53640000D01*
X167735000Y-48340000D02*
X147295000Y-48340000D01*
X167735000Y-53640000D02*
X167735000Y-48340000D01*
X147295000Y-49990000D02*
G75*
G02*
X147295000Y-51990000I0J-1000000D01*
G01*
%TO.C,R2*%
X176460000Y-47500000D02*
X177230000Y-47500000D01*
X177230000Y-46130000D02*
X177230000Y-48870000D01*
X177230000Y-48870000D02*
X183770000Y-48870000D01*
X183770000Y-46130000D02*
X177230000Y-46130000D01*
X183770000Y-48870000D02*
X183770000Y-46130000D01*
X184540000Y-47500000D02*
X183770000Y-47500000D01*
%TO.C,NANO1*%
X175100000Y-62900000D02*
X175100000Y-65570000D01*
X175100000Y-68110000D02*
X175100000Y-106340000D01*
X175100000Y-106340000D02*
X180180000Y-106340000D01*
X177770000Y-65570000D02*
X175100000Y-65570000D01*
X177770000Y-68110000D02*
X175100000Y-68110000D01*
X177770000Y-68110000D02*
X177770000Y-65570000D01*
X177770000Y-68110000D02*
X177770000Y-103670000D01*
X177770000Y-103670000D02*
X175100000Y-103670000D01*
X180180000Y-98460000D02*
X188060000Y-98460000D01*
X180180000Y-108880000D02*
X180180000Y-98460000D01*
X188060000Y-98460000D02*
X188060000Y-108880000D01*
X188060000Y-108880000D02*
X180180000Y-108880000D01*
X190470000Y-65570000D02*
X190470000Y-103670000D01*
X190470000Y-65570000D02*
X193140000Y-65570000D01*
X190470000Y-103670000D02*
X193140000Y-103670000D01*
X193140000Y-62900000D02*
X175100000Y-62900000D01*
X193140000Y-106340000D02*
X188060000Y-106340000D01*
X193140000Y-106340000D02*
X193140000Y-62900000D01*
%TO.C,LS161_1*%
X118660000Y-78630000D02*
X118660000Y-99070000D01*
X118660000Y-99070000D02*
X120310000Y-99070000D01*
X122310000Y-99070000D02*
X123960000Y-99070000D01*
X123960000Y-78630000D02*
X118660000Y-78630000D01*
X123960000Y-99070000D02*
X123960000Y-78630000D01*
X120310000Y-99070000D02*
G75*
G02*
X122310000Y-99070000I1000000J0D01*
G01*
%TO.C,D2*%
X189170000Y-46264000D02*
X189170000Y-46420000D01*
X189170000Y-48580000D02*
X189170000Y-48736000D01*
X189170000Y-46264484D02*
G75*
G02*
X192402335Y-46421392I1560000J-1235516D01*
G01*
X189689039Y-46420000D02*
G75*
G02*
X191771130Y-46420163I1040961J-1080000D01*
G01*
X191771130Y-48579837D02*
G75*
G02*
X189689039Y-48580000I-1041130J1079837D01*
G01*
X192402335Y-48578608D02*
G75*
G02*
X189170000Y-48735516I-1672335J1078608D01*
G01*
%TO.C,D3*%
X189435000Y-51764000D02*
X189435000Y-51920000D01*
X189435000Y-54080000D02*
X189435000Y-54236000D01*
X189435000Y-51764484D02*
G75*
G02*
X192667335Y-51921392I1560000J-1235516D01*
G01*
X189954039Y-51920000D02*
G75*
G02*
X192036130Y-51920163I1040961J-1080000D01*
G01*
X192036130Y-54079837D02*
G75*
G02*
X189954039Y-54080000I-1041130J1079837D01*
G01*
X192667335Y-54078608D02*
G75*
G02*
X189435000Y-54235516I-1672335J1078608D01*
G01*
%TD*%
M02*
