M48
; DRILL file {KiCad 8.0.3} date 2024-09-08T09:18:29+0200
; FORMAT={-:-/ absolute / metric / decimal}
; #@! TF.CreationDate,2024-09-08T09:18:29+02:00
; #@! TF.GenerationSoftware,Kicad,Pcbnew,8.0.3
; #@! TF.FileFunction,MixedPlating,1,2
FMAT,2
METRIC
; #@! TA.AperFunction,Plated,PTH,ViaDrill
T1C1.000
; #@! TA.AperFunction,Plated,PTH,ComponentDrill
T2C1.000
%
G90
G05
T1
X114.699Y-60.726
X114.888Y-73.361
X115.421Y-58.144
X120.78Y-84.45
X126.561Y-57.97
X126.754Y-51.081
X128.67Y-69.685
X130.528Y-63.159
X132.82Y-58.214
X140.107Y-87.672
X140.688Y-72.215
X145.8Y-112.279
X149.241Y-57.711
X152.642Y-58.482
X153.705Y-51.369
X154.976Y-110.003
X155.702Y-107.554
X162.119Y-49.891
X162.466Y-79.363
X162.655Y-82.662
X166.158Y-111.61
X170.829Y-97.413
X173.458Y-100.113
X173.535Y-102.429
X173.596Y-97.802
T2
X113.38Y-47.38
X113.38Y-55.0
X115.92Y-47.38
X115.92Y-55.0
X117.5Y-79.96
X117.5Y-82.5
X117.5Y-85.04
X117.5Y-87.58
X117.5Y-90.12
X117.5Y-92.66
X117.5Y-95.2
X117.5Y-97.74
X118.46Y-47.38
X118.46Y-55.0
X121.0Y-47.38
X121.0Y-55.0
X123.54Y-47.38
X123.54Y-55.0
X125.12Y-79.96
X125.12Y-82.5
X125.12Y-85.04
X125.12Y-87.58
X125.12Y-90.12
X125.12Y-92.66
X125.12Y-95.2
X125.12Y-97.74
X126.08Y-47.38
X126.08Y-55.0
X128.62Y-47.38
X128.62Y-55.0
X131.16Y-47.38
X131.16Y-55.0
X143.5Y-73.34
X143.5Y-75.88
X143.5Y-78.42
X143.5Y-80.96
X143.5Y-83.5
X143.5Y-86.04
X143.5Y-88.58
X143.5Y-91.12
X143.5Y-93.66
X143.5Y-96.2
X143.5Y-98.74
X143.5Y-101.28
X143.5Y-103.82
X143.5Y-106.36
X148.625Y-47.18
X148.625Y-54.8
X151.165Y-47.18
X151.165Y-54.8
X153.705Y-47.18
X153.705Y-54.8
X156.245Y-47.18
X156.245Y-54.8
X158.74Y-73.34
X158.74Y-75.88
X158.74Y-78.42
X158.74Y-80.96
X158.74Y-83.5
X158.74Y-86.04
X158.74Y-88.58
X158.74Y-91.12
X158.74Y-93.66
X158.74Y-96.2
X158.74Y-98.74
X158.74Y-101.28
X158.74Y-103.82
X158.74Y-106.36
X158.785Y-47.18
X158.785Y-54.8
X161.325Y-47.18
X161.325Y-54.8
X163.865Y-47.18
X163.865Y-54.8
X166.405Y-47.18
X166.405Y-54.8
X175.42Y-42.0
X175.42Y-47.5
X175.42Y-53.05
X176.5Y-66.84
X176.5Y-69.38
X176.5Y-71.92
X176.5Y-74.46
X176.5Y-77.0
X176.5Y-79.54
X176.5Y-82.08
X176.5Y-84.62
X176.5Y-87.16
X176.5Y-89.7
X176.5Y-92.24
X176.5Y-94.78
X176.5Y-97.32
X176.5Y-99.86
X176.5Y-102.4
X185.58Y-42.0
X185.58Y-47.5
X185.58Y-53.05
X189.46Y-47.5
X189.725Y-53.0
X189.96Y-42.0
X191.74Y-66.84
X191.74Y-69.38
X191.74Y-71.92
X191.74Y-74.46
X191.74Y-77.0
X191.74Y-79.54
X191.74Y-82.08
X191.74Y-84.62
X191.74Y-87.16
X191.74Y-89.7
X191.74Y-92.24
X191.74Y-94.78
X191.74Y-97.32
X191.74Y-99.86
X191.74Y-102.4
X192.0Y-47.5
X192.265Y-53.0
X192.5Y-42.0
M30
