%TF.GenerationSoftware,KiCad,Pcbnew,8.0.3*%
%TF.CreationDate,2024-09-08T09:23:32+02:00*%
%TF.ProjectId,AT28C64B-circuit-third-sol,41543238-4336-4344-922d-636972637569,rev?*%
%TF.SameCoordinates,Original*%
%TF.FileFunction,Copper,L2,Bot*%
%TF.FilePolarity,Positive*%
%FSLAX46Y46*%
G04 Gerber Fmt 4.6, Leading zero omitted, Abs format (unit mm)*
G04 Created by KiCad (PCBNEW 8.0.3) date 2024-09-08 09:23:32*
%MOMM*%
%LPD*%
G01*
G04 APERTURE LIST*
%TA.AperFunction,ComponentPad*%
%ADD10C,2.000000*%
%TD*%
%TA.AperFunction,ComponentPad*%
%ADD11O,2.000000X1.600000*%
%TD*%
%TA.AperFunction,ComponentPad*%
%ADD12R,2.000000X2.000000*%
%TD*%
%TA.AperFunction,ComponentPad*%
%ADD13O,2.000000X2.000000*%
%TD*%
%TA.AperFunction,ComponentPad*%
%ADD14R,2.400000X2.000000*%
%TD*%
%TA.AperFunction,ComponentPad*%
%ADD15O,2.400000X2.000000*%
%TD*%
%TA.AperFunction,ComponentPad*%
%ADD16R,2.000000X1.800000*%
%TD*%
%TA.AperFunction,ViaPad*%
%ADD17C,2.000000*%
%TD*%
%TA.AperFunction,Conductor*%
%ADD18C,1.100000*%
%TD*%
G04 APERTURE END LIST*
D10*
%TO.P,R3,1*%
%TO.N,GND*%
X175420000Y-53050000D03*
D11*
%TO.P,R3,2*%
%TO.N,Net-(D3-K)*%
X185580000Y-53050000D03*
%TD*%
D10*
%TO.P,R1,1*%
%TO.N,GND*%
X175420000Y-42000000D03*
D11*
%TO.P,R1,2*%
%TO.N,Net-(D1-K)*%
X185580000Y-42000000D03*
%TD*%
D12*
%TO.P,LS161_2,1,~{MR}*%
%TO.N,Net-(LS161_1-~{MR})*%
X113380000Y-55000000D03*
D13*
%TO.P,LS161_2,2,CP*%
%TO.N,Net-(LS161_1-CP)*%
X115920000Y-55000000D03*
%TO.P,LS161_2,3,D0*%
%TO.N,GND*%
X118460000Y-55000000D03*
%TO.P,LS161_2,4,D1*%
X121000000Y-55000000D03*
%TO.P,LS161_2,5,D2*%
X123540000Y-55000000D03*
%TO.P,LS161_2,6,D3*%
X126080000Y-55000000D03*
%TO.P,LS161_2,7,CEP*%
%TO.N,VCC*%
X128620000Y-55000000D03*
%TO.P,LS161_2,8,GND*%
%TO.N,GND*%
X131160000Y-55000000D03*
%TO.P,LS161_2,9,~{PE}*%
%TO.N,VCC*%
X131160000Y-47380000D03*
%TO.P,LS161_2,10,CET*%
%TO.N,Net-(LS161_1-TC)*%
X128620000Y-47380000D03*
%TO.P,LS161_2,11,Q3*%
%TO.N,Net-(EEPROM1-A7)*%
X126080000Y-47380000D03*
%TO.P,LS161_2,12,Q2*%
%TO.N,Net-(EEPROM1-A6)*%
X123540000Y-47380000D03*
%TO.P,LS161_2,13,Q1*%
%TO.N,Net-(EEPROM1-A5)*%
X121000000Y-47380000D03*
%TO.P,LS161_2,14,Q0*%
%TO.N,Net-(EEPROM1-A4)*%
X118460000Y-47380000D03*
%TO.P,LS161_2,15,TC*%
%TO.N,Net-(LS161_2-TC)*%
X115920000Y-47380000D03*
%TO.P,LS161_2,16,VCC*%
%TO.N,VCC*%
X113380000Y-47380000D03*
%TD*%
D12*
%TO.P,D1,1,K*%
%TO.N,Net-(D1-K)*%
X189960000Y-42000000D03*
D10*
%TO.P,D1,2,A*%
%TO.N,VCC*%
X192500000Y-42000000D03*
%TD*%
D14*
%TO.P,EEPROM1,1*%
%TO.N,N/C*%
X143500000Y-73340000D03*
D15*
%TO.P,EEPROM1,2,A12*%
%TO.N,Net-(EEPROM1-A12)*%
X143500000Y-75880000D03*
%TO.P,EEPROM1,3,A7*%
%TO.N,Net-(EEPROM1-A7)*%
X143500000Y-78420000D03*
%TO.P,EEPROM1,4,A6*%
%TO.N,Net-(EEPROM1-A6)*%
X143500000Y-80960000D03*
%TO.P,EEPROM1,5,A5*%
%TO.N,Net-(EEPROM1-A5)*%
X143500000Y-83500000D03*
%TO.P,EEPROM1,6,A4*%
%TO.N,Net-(EEPROM1-A4)*%
X143500000Y-86040000D03*
%TO.P,EEPROM1,7,A3*%
%TO.N,Net-(EEPROM1-A3)*%
X143500000Y-88580000D03*
%TO.P,EEPROM1,8,A2*%
%TO.N,Net-(EEPROM1-A2)*%
X143500000Y-91120000D03*
%TO.P,EEPROM1,9,A1*%
%TO.N,Net-(EEPROM1-A1)*%
X143500000Y-93660000D03*
%TO.P,EEPROM1,10,A0*%
%TO.N,Net-(EEPROM1-A0)*%
X143500000Y-96200000D03*
%TO.P,EEPROM1,11,D0*%
%TO.N,/D0*%
X143500000Y-98740000D03*
%TO.P,EEPROM1,12,D1*%
%TO.N,/D1*%
X143500000Y-101280000D03*
%TO.P,EEPROM1,13,D2*%
%TO.N,/D2*%
X143500000Y-103820000D03*
%TO.P,EEPROM1,14,GND*%
%TO.N,GND*%
X143500000Y-106360000D03*
%TO.P,EEPROM1,15,D3*%
%TO.N,/D3*%
X158740000Y-106360000D03*
%TO.P,EEPROM1,16,D4*%
%TO.N,/D4*%
X158740000Y-103820000D03*
%TO.P,EEPROM1,17,D5*%
%TO.N,/D5*%
X158740000Y-101280000D03*
%TO.P,EEPROM1,18,D6*%
%TO.N,/D6*%
X158740000Y-98740000D03*
%TO.P,EEPROM1,19,D7*%
%TO.N,/D7*%
X158740000Y-96200000D03*
%TO.P,EEPROM1,20,~{CS}*%
%TO.N,Net-(EEPROM1-~{CS})*%
X158740000Y-93660000D03*
%TO.P,EEPROM1,21,A10*%
%TO.N,Net-(EEPROM1-A10)*%
X158740000Y-91120000D03*
%TO.P,EEPROM1,22,~{OE}*%
%TO.N,Net-(EEPROM1-~{OE})*%
X158740000Y-88580000D03*
%TO.P,EEPROM1,23,A11*%
%TO.N,Net-(EEPROM1-A11)*%
X158740000Y-86040000D03*
%TO.P,EEPROM1,24,A9*%
%TO.N,Net-(EEPROM1-A9)*%
X158740000Y-83500000D03*
%TO.P,EEPROM1,25,A8*%
%TO.N,Net-(EEPROM1-A8)*%
X158740000Y-80960000D03*
%TO.P,EEPROM1,26*%
%TO.N,N/C*%
X158740000Y-78420000D03*
%TO.P,EEPROM1,27,~{WE}*%
%TO.N,Net-(EEPROM1-~{WE})*%
X158740000Y-75880000D03*
%TO.P,EEPROM1,28,VCC*%
%TO.N,VCC*%
X158740000Y-73340000D03*
%TD*%
D12*
%TO.P,LS161_3,1,~{MR}*%
%TO.N,Net-(LS161_1-~{MR})*%
X148625000Y-54800000D03*
D13*
%TO.P,LS161_3,2,CP*%
%TO.N,Net-(LS161_1-CP)*%
X151165000Y-54800000D03*
%TO.P,LS161_3,3,D0*%
%TO.N,GND*%
X153705000Y-54800000D03*
%TO.P,LS161_3,4,D1*%
X156245000Y-54800000D03*
%TO.P,LS161_3,5,D2*%
X158785000Y-54800000D03*
%TO.P,LS161_3,6,D3*%
X161325000Y-54800000D03*
%TO.P,LS161_3,7,CEP*%
%TO.N,VCC*%
X163865000Y-54800000D03*
%TO.P,LS161_3,8,GND*%
%TO.N,GND*%
X166405000Y-54800000D03*
%TO.P,LS161_3,9,~{PE}*%
%TO.N,VCC*%
X166405000Y-47180000D03*
%TO.P,LS161_3,10,CET*%
%TO.N,Net-(LS161_2-TC)*%
X163865000Y-47180000D03*
%TO.P,LS161_3,11,Q3*%
%TO.N,Net-(EEPROM1-A11)*%
X161325000Y-47180000D03*
%TO.P,LS161_3,12,Q2*%
%TO.N,Net-(EEPROM1-A10)*%
X158785000Y-47180000D03*
%TO.P,LS161_3,13,Q1*%
%TO.N,Net-(EEPROM1-A9)*%
X156245000Y-47180000D03*
%TO.P,LS161_3,14,Q0*%
%TO.N,Net-(EEPROM1-A8)*%
X153705000Y-47180000D03*
%TO.P,LS161_3,15,TC*%
%TO.N,unconnected-(LS161_3-TC-Pad15)*%
X151165000Y-47180000D03*
%TO.P,LS161_3,16,VCC*%
%TO.N,VCC*%
X148625000Y-47180000D03*
%TD*%
D10*
%TO.P,R2,1*%
%TO.N,GND*%
X175420000Y-47500000D03*
D11*
%TO.P,R2,2*%
%TO.N,Net-(D2-K)*%
X185580000Y-47500000D03*
%TD*%
D12*
%TO.P,NANO1,1,D1/TX*%
%TO.N,unconnected-(NANO1-D1{slash}TX-Pad1)*%
X176500000Y-66840000D03*
D13*
%TO.P,NANO1,2,D0/RX*%
%TO.N,unconnected-(NANO1-D0{slash}RX-Pad2)*%
X176500000Y-69380000D03*
%TO.P,NANO1,3,~{RESET}*%
%TO.N,unconnected-(NANO1-~{RESET}-Pad3)*%
X176500000Y-71920000D03*
%TO.P,NANO1,4,GND*%
%TO.N,GND*%
X176500000Y-74460000D03*
%TO.P,NANO1,5,D2*%
%TO.N,Net-(D3-A)*%
X176500000Y-77000000D03*
%TO.P,NANO1,6,D3*%
%TO.N,Net-(LS161_1-CP)*%
X176500000Y-79540000D03*
%TO.P,NANO1,7,D4*%
%TO.N,Net-(LS161_1-~{MR})*%
X176500000Y-82080000D03*
%TO.P,NANO1,8,D5*%
%TO.N,Net-(EEPROM1-~{CS})*%
X176500000Y-84620000D03*
%TO.P,NANO1,9,D6*%
%TO.N,Net-(EEPROM1-~{OE})*%
X176500000Y-87160000D03*
%TO.P,NANO1,10,D7*%
%TO.N,Net-(EEPROM1-~{WE})*%
X176500000Y-89700000D03*
%TO.P,NANO1,11,D8*%
%TO.N,Net-(EEPROM1-A12)*%
X176500000Y-92240000D03*
%TO.P,NANO1,12,D9*%
%TO.N,/D0*%
X176500000Y-94780000D03*
%TO.P,NANO1,13,D10*%
%TO.N,/D1*%
X176500000Y-97320000D03*
%TO.P,NANO1,14,D11*%
%TO.N,/D2*%
X176500000Y-99860000D03*
%TO.P,NANO1,15,D12*%
%TO.N,/D3*%
X176500000Y-102400000D03*
%TO.P,NANO1,16,D13*%
%TO.N,Net-(D2-A)*%
X191740000Y-102400000D03*
%TO.P,NANO1,17,3V3*%
%TO.N,unconnected-(NANO1-3V3-Pad17)*%
X191740000Y-99860000D03*
%TO.P,NANO1,18,AREF*%
%TO.N,unconnected-(NANO1-AREF-Pad18)*%
X191740000Y-97320000D03*
%TO.P,NANO1,19,A0*%
%TO.N,unconnected-(NANO1-A0-Pad19)*%
X191740000Y-94780000D03*
%TO.P,NANO1,20,A1*%
%TO.N,/D4*%
X191740000Y-92240000D03*
%TO.P,NANO1,21,A2*%
%TO.N,/D5*%
X191740000Y-89700000D03*
%TO.P,NANO1,22,A3*%
%TO.N,/D6*%
X191740000Y-87160000D03*
%TO.P,NANO1,23,A4*%
%TO.N,/D7*%
X191740000Y-84620000D03*
%TO.P,NANO1,24,A5*%
%TO.N,unconnected-(NANO1-A5-Pad24)*%
X191740000Y-82080000D03*
%TO.P,NANO1,25,A6*%
%TO.N,unconnected-(NANO1-A6-Pad25)*%
X191740000Y-79540000D03*
%TO.P,NANO1,26,A7*%
%TO.N,unconnected-(NANO1-A7-Pad26)*%
X191740000Y-77000000D03*
%TO.P,NANO1,27,+5V*%
%TO.N,VCC*%
X191740000Y-74460000D03*
%TO.P,NANO1,28,~{RESET}*%
%TO.N,unconnected-(NANO1-~{RESET}-Pad28)*%
X191740000Y-71920000D03*
%TO.P,NANO1,29,GND*%
%TO.N,unconnected-(NANO1-GND-Pad29)*%
X191740000Y-69380000D03*
%TO.P,NANO1,30,VIN*%
%TO.N,unconnected-(NANO1-VIN-Pad30)*%
X191740000Y-66840000D03*
%TD*%
D12*
%TO.P,LS161_1,1,~{MR}*%
%TO.N,Net-(LS161_1-~{MR})*%
X125120000Y-97740000D03*
D13*
%TO.P,LS161_1,2,CP*%
%TO.N,Net-(LS161_1-CP)*%
X125120000Y-95200000D03*
%TO.P,LS161_1,3,D0*%
%TO.N,GND*%
X125120000Y-92660000D03*
%TO.P,LS161_1,4,D1*%
X125120000Y-90120000D03*
%TO.P,LS161_1,5,D2*%
X125120000Y-87580000D03*
%TO.P,LS161_1,6,D3*%
X125120000Y-85040000D03*
%TO.P,LS161_1,7,CEP*%
%TO.N,VCC*%
X125120000Y-82500000D03*
%TO.P,LS161_1,8,GND*%
%TO.N,GND*%
X125120000Y-79960000D03*
%TO.P,LS161_1,9,~{PE}*%
%TO.N,VCC*%
X117500000Y-79960000D03*
%TO.P,LS161_1,10,CET*%
X117500000Y-82500000D03*
%TO.P,LS161_1,11,Q3*%
%TO.N,Net-(EEPROM1-A3)*%
X117500000Y-85040000D03*
%TO.P,LS161_1,12,Q2*%
%TO.N,Net-(EEPROM1-A2)*%
X117500000Y-87580000D03*
%TO.P,LS161_1,13,Q1*%
%TO.N,Net-(EEPROM1-A1)*%
X117500000Y-90120000D03*
%TO.P,LS161_1,14,Q0*%
%TO.N,Net-(EEPROM1-A0)*%
X117500000Y-92660000D03*
%TO.P,LS161_1,15,TC*%
%TO.N,Net-(LS161_1-TC)*%
X117500000Y-95200000D03*
%TO.P,LS161_1,16,VCC*%
%TO.N,VCC*%
X117500000Y-97740000D03*
%TD*%
D12*
%TO.P,D2,1,K*%
%TO.N,Net-(D2-K)*%
X189460000Y-47500000D03*
D10*
%TO.P,D2,2,A*%
%TO.N,Net-(D2-A)*%
X192000000Y-47500000D03*
%TD*%
D16*
%TO.P,D3,1,K*%
%TO.N,Net-(D3-K)*%
X189725000Y-53000000D03*
D10*
%TO.P,D3,2,A*%
%TO.N,Net-(D3-A)*%
X192265000Y-53000000D03*
%TD*%
D17*
%TO.N,Net-(LS161_1-CP)*%
X128670300Y-69685400D03*
X152642000Y-58481600D03*
X115420600Y-58143900D03*
%TO.N,Net-(LS161_1-TC)*%
X126753900Y-51081500D03*
X114887700Y-73361000D03*
%TO.N,Net-(LS161_1-~{MR})*%
X149240800Y-57711100D03*
X114698800Y-60725800D03*
X130528400Y-63159000D03*
%TO.N,Net-(EEPROM1-A3)*%
X120779800Y-84449800D03*
X140107500Y-87672500D03*
%TO.N,GND*%
X132819900Y-58214200D03*
X153705000Y-51369000D03*
X126560600Y-57970400D03*
%TO.N,/D2*%
X173457900Y-100113300D03*
X145800000Y-112278900D03*
%TO.N,/D3*%
X173535500Y-102429300D03*
X166157900Y-111609800D03*
%TO.N,/D0*%
X170828800Y-97413000D03*
X155702100Y-107554400D03*
%TO.N,Net-(EEPROM1-A11)*%
X162654600Y-82661700D03*
X162118900Y-49891400D03*
%TO.N,/D1*%
X173595600Y-97801900D03*
X154975700Y-110003500D03*
%TO.N,Net-(EEPROM1-A12)*%
X162465600Y-79363200D03*
X140687800Y-72214700D03*
%TD*%
D18*
%TO.N,Net-(LS161_2-TC)*%
X121327200Y-39872800D02*
X115920000Y-45280000D01*
X158657800Y-39872800D02*
X121327200Y-39872800D01*
X163865000Y-45080000D02*
X158657800Y-39872800D01*
X163865000Y-47180000D02*
X163865000Y-45080000D01*
X115920000Y-47380000D02*
X115920000Y-45280000D01*
%TO.N,Net-(LS161_1-CP)*%
X151165000Y-54800000D02*
X151165000Y-56900000D01*
X176500000Y-79540000D02*
X174400000Y-79540000D01*
X125120000Y-95200000D02*
X127220000Y-95200000D01*
X152642000Y-58377000D02*
X152642000Y-58481600D01*
X151165000Y-56900000D02*
X152642000Y-58377000D01*
X173700400Y-79540000D02*
X174400000Y-79540000D01*
X152642000Y-58481600D02*
X173700400Y-79540000D01*
X115920000Y-57644500D02*
X115920000Y-55000000D01*
X115420600Y-58143900D02*
X115920000Y-57644500D01*
X128670300Y-93749700D02*
X128670300Y-69685400D01*
X127220000Y-95200000D02*
X128670300Y-93749700D01*
%TO.N,Net-(LS161_1-TC)*%
X117500000Y-95200000D02*
X115400000Y-95200000D01*
X128620000Y-47380000D02*
X128620000Y-49480000D01*
X128355400Y-49480000D02*
X126753900Y-51081500D01*
X128620000Y-49480000D02*
X128355400Y-49480000D01*
X114887700Y-94687700D02*
X114887700Y-73361000D01*
X115400000Y-95200000D02*
X114887700Y-94687700D01*
%TO.N,Net-(LS161_1-~{MR})*%
X148625000Y-54800000D02*
X148625000Y-56900000D01*
X176043200Y-82080000D02*
X174400000Y-82080000D01*
X176043200Y-82080000D02*
X176500000Y-82080000D01*
X173609700Y-82080000D02*
X149240800Y-57711100D01*
X174400000Y-82080000D02*
X173609700Y-82080000D01*
X149240800Y-57515800D02*
X148625000Y-56900000D01*
X149240800Y-57711100D02*
X149240800Y-57515800D01*
X113380000Y-59407000D02*
X114698800Y-60725800D01*
X113380000Y-55000000D02*
X113380000Y-59407000D01*
X125120000Y-97740000D02*
X127220000Y-97740000D01*
X130528400Y-94431600D02*
X130528400Y-63159000D01*
X127220000Y-97740000D02*
X130528400Y-94431600D01*
%TO.N,Net-(EEPROM1-A7)*%
X143500000Y-78420000D02*
X141200000Y-78420000D01*
X134906900Y-72126900D02*
X141200000Y-78420000D01*
X134906900Y-48491700D02*
X134906900Y-72126900D01*
X131933900Y-45518700D02*
X134906900Y-48491700D01*
X127860200Y-45518700D02*
X131933900Y-45518700D01*
X126080000Y-47298900D02*
X127860200Y-45518700D01*
X126080000Y-47380000D02*
X126080000Y-47298900D01*
%TO.N,Net-(EEPROM1-~{OE})*%
X158740000Y-88580000D02*
X161040000Y-88580000D01*
X164765100Y-92305100D02*
X161040000Y-88580000D01*
X164765100Y-96277700D02*
X164765100Y-92305100D01*
X172769300Y-104281900D02*
X164765100Y-96277700D01*
X177264300Y-104281900D02*
X172769300Y-104281900D01*
X178388300Y-103157900D02*
X177264300Y-104281900D01*
X178388300Y-88961700D02*
X178388300Y-103157900D01*
X176586600Y-87160000D02*
X178388300Y-88961700D01*
X176500000Y-87160000D02*
X176586600Y-87160000D01*
%TO.N,Net-(EEPROM1-A5)*%
X143500000Y-83500000D02*
X145800000Y-83500000D01*
X121000000Y-47380000D02*
X121000000Y-45280000D01*
X146995500Y-82304500D02*
X145800000Y-83500000D01*
X146995500Y-70841200D02*
X146995500Y-82304500D01*
X139111900Y-62957600D02*
X146995500Y-70841200D01*
X139111900Y-48690100D02*
X139111900Y-62957600D01*
X133134000Y-42712200D02*
X139111900Y-48690100D01*
X123567800Y-42712200D02*
X133134000Y-42712200D01*
X121000000Y-45280000D02*
X123567800Y-42712200D01*
%TO.N,/D7*%
X191740000Y-84620000D02*
X189640000Y-84620000D01*
X158740000Y-96200000D02*
X161040000Y-96200000D01*
X161040000Y-96584100D02*
X161040000Y-96200000D01*
X171549800Y-107093900D02*
X161040000Y-96584100D01*
X178457800Y-107093900D02*
X171549800Y-107093900D01*
X181403500Y-104148200D02*
X178457800Y-107093900D01*
X181403500Y-92856500D02*
X181403500Y-104148200D01*
X189640000Y-84620000D02*
X181403500Y-92856500D01*
%TO.N,Net-(EEPROM1-A10)*%
X158740000Y-91120000D02*
X156440000Y-91120000D01*
X158785000Y-47180000D02*
X158785000Y-45080000D01*
X156198000Y-42493000D02*
X158785000Y-45080000D01*
X146706300Y-42493000D02*
X156198000Y-42493000D01*
X142567000Y-46632300D02*
X146706300Y-42493000D01*
X142567000Y-59604500D02*
X142567000Y-46632300D01*
X149804900Y-66842400D02*
X142567000Y-59604500D01*
X149804900Y-84484900D02*
X149804900Y-66842400D01*
X156440000Y-91120000D02*
X149804900Y-84484900D01*
%TO.N,Net-(EEPROM1-A0)*%
X117500000Y-92660000D02*
X119600000Y-92660000D01*
X134964900Y-102435100D02*
X141200000Y-96200000D01*
X122514000Y-102435100D02*
X134964900Y-102435100D01*
X119600000Y-99521100D02*
X122514000Y-102435100D01*
X119600000Y-92660000D02*
X119600000Y-99521100D01*
X143500000Y-96200000D02*
X141200000Y-96200000D01*
%TO.N,Net-(EEPROM1-A4)*%
X118460000Y-47380000D02*
X118460000Y-45280000D01*
X143500000Y-86040000D02*
X145800000Y-86040000D01*
X148400200Y-83439800D02*
X145800000Y-86040000D01*
X148400200Y-68442000D02*
X148400200Y-83439800D01*
X140593900Y-60635700D02*
X148400200Y-68442000D01*
X140593900Y-48119200D02*
X140593900Y-60635700D01*
X133785200Y-41310500D02*
X140593900Y-48119200D01*
X122429500Y-41310500D02*
X133785200Y-41310500D01*
X118460000Y-45280000D02*
X122429500Y-41310500D01*
%TO.N,Net-(EEPROM1-A3)*%
X141015000Y-88580000D02*
X140107500Y-87672500D01*
X143500000Y-88580000D02*
X141015000Y-88580000D01*
X120189600Y-85040000D02*
X120779800Y-84449800D01*
X117500000Y-85040000D02*
X120189600Y-85040000D01*
%TO.N,Net-(EEPROM1-~{CS})*%
X162902600Y-95522600D02*
X161040000Y-93660000D01*
X162902600Y-96430900D02*
X162902600Y-95522600D01*
X172160300Y-105688600D02*
X162902600Y-96430900D01*
X177861500Y-105688600D02*
X172160300Y-105688600D01*
X179812800Y-103737300D02*
X177861500Y-105688600D01*
X179812800Y-85832800D02*
X179812800Y-103737300D01*
X178600000Y-84620000D02*
X179812800Y-85832800D01*
X176500000Y-84620000D02*
X178600000Y-84620000D01*
X158740000Y-93660000D02*
X161040000Y-93660000D01*
%TO.N,Net-(EEPROM1-A2)*%
X122476900Y-90456900D02*
X119600000Y-87580000D01*
X122476900Y-98301400D02*
X122476900Y-90456900D01*
X123767200Y-99591700D02*
X122476900Y-98301400D01*
X129838600Y-99591700D02*
X123767200Y-99591700D01*
X138310300Y-91120000D02*
X129838600Y-99591700D01*
X143500000Y-91120000D02*
X138310300Y-91120000D01*
X117500000Y-87580000D02*
X119600000Y-87580000D01*
%TO.N,Net-(EEPROM1-A9)*%
X158740000Y-83500000D02*
X156440000Y-83500000D01*
X156245000Y-47180000D02*
X156245000Y-45080000D01*
X155067700Y-43902700D02*
X156245000Y-45080000D01*
X147281500Y-43902700D02*
X155067700Y-43902700D01*
X143968700Y-47215500D02*
X147281500Y-43902700D01*
X143968700Y-59023900D02*
X143968700Y-47215500D01*
X153598300Y-68653500D02*
X143968700Y-59023900D01*
X153598300Y-80658300D02*
X153598300Y-68653500D01*
X156440000Y-83500000D02*
X153598300Y-80658300D01*
%TO.N,GND*%
X175420000Y-42000000D02*
X175420000Y-47500000D01*
X166405000Y-54800000D02*
X166405000Y-55850000D01*
X174400000Y-57630000D02*
X172620000Y-55850000D01*
X174400000Y-74460000D02*
X174400000Y-57630000D01*
X166405000Y-55850000D02*
X172620000Y-55850000D01*
X176500000Y-74460000D02*
X174400000Y-74460000D01*
X123540000Y-55000000D02*
X121000000Y-55000000D01*
X156245000Y-54800000D02*
X154145000Y-54800000D01*
X165355000Y-56900000D02*
X166405000Y-55850000D01*
X161325000Y-56900000D02*
X165355000Y-56900000D01*
X161325000Y-54800000D02*
X161325000Y-56900000D01*
X125120000Y-87580000D02*
X125120000Y-90120000D01*
X125120000Y-90120000D02*
X125120000Y-92660000D01*
X121000000Y-55000000D02*
X118460000Y-55000000D01*
X172620000Y-55850000D02*
X175420000Y-53050000D01*
X175420000Y-53050000D02*
X175420000Y-47500000D01*
X123540000Y-55000000D02*
X125640000Y-55000000D01*
X153705000Y-54800000D02*
X154145000Y-54800000D01*
X153705000Y-54800000D02*
X153705000Y-52700000D01*
X125120000Y-79960000D02*
X126170000Y-79960000D01*
X118460000Y-59677600D02*
X118460000Y-55000000D01*
X111631900Y-66505700D02*
X118460000Y-59677600D01*
X111631900Y-95421900D02*
X111631900Y-66505700D01*
X122570000Y-106360000D02*
X111631900Y-95421900D01*
X143500000Y-106360000D02*
X122570000Y-106360000D01*
X153705000Y-52700000D02*
X153705000Y-51369000D01*
X132547100Y-58487000D02*
X132819900Y-58214200D01*
X131160000Y-57100000D02*
X132547100Y-58487000D01*
X131160000Y-55000000D02*
X131160000Y-57100000D01*
X126080000Y-55000000D02*
X125640000Y-55000000D01*
X126080000Y-57489800D02*
X126560600Y-57970400D01*
X126080000Y-55000000D02*
X126080000Y-57489800D01*
X127220000Y-81010000D02*
X127220000Y-85040000D01*
X126170000Y-79960000D02*
X127220000Y-81010000D01*
X125120000Y-85040000D02*
X126170000Y-85040000D01*
X126170000Y-85040000D02*
X127220000Y-85040000D01*
X125730000Y-85480000D02*
X125120000Y-85480000D01*
X126170000Y-85040000D02*
X125730000Y-85480000D01*
X125120000Y-87580000D02*
X125120000Y-85480000D01*
X126170000Y-79032500D02*
X126170000Y-79960000D01*
X126818000Y-78384500D02*
X126170000Y-79032500D01*
X126818000Y-64216600D02*
X126818000Y-78384500D01*
X132547100Y-58487500D02*
X126818000Y-64216600D01*
X132547100Y-58487100D02*
X132547100Y-58487500D01*
X132547100Y-58487000D02*
X132547100Y-58487100D01*
X156245000Y-54800000D02*
X158785000Y-54800000D01*
X158785000Y-54800000D02*
X161325000Y-54800000D01*
%TO.N,Net-(EEPROM1-A8)*%
X158740000Y-80960000D02*
X156440000Y-80960000D01*
X153705000Y-47091200D02*
X153705000Y-47180000D01*
X151934400Y-45320600D02*
X153705000Y-47091200D01*
X147848100Y-45320600D02*
X151934400Y-45320600D01*
X145370400Y-47798300D02*
X147848100Y-45320600D01*
X145370400Y-58443300D02*
X145370400Y-47798300D01*
X156440000Y-69512900D02*
X145370400Y-58443300D01*
X156440000Y-80960000D02*
X156440000Y-69512900D01*
%TO.N,Net-(EEPROM1-A1)*%
X117500000Y-90120000D02*
X119600000Y-90120000D01*
X143500000Y-93660000D02*
X141200000Y-93660000D01*
X133843000Y-101017000D02*
X141200000Y-93660000D01*
X123139600Y-101017000D02*
X133843000Y-101017000D01*
X121072200Y-98949600D02*
X123139600Y-101017000D01*
X121072200Y-91592200D02*
X121072200Y-98949600D01*
X119600000Y-90120000D02*
X121072200Y-91592200D01*
%TO.N,Net-(EEPROM1-~{WE})*%
X176500000Y-89700000D02*
X174400000Y-89700000D01*
X158740000Y-75880000D02*
X161040000Y-75880000D01*
X161615200Y-75880000D02*
X161040000Y-75880000D01*
X174400000Y-88664800D02*
X161615200Y-75880000D01*
X174400000Y-89700000D02*
X174400000Y-88664800D01*
%TO.N,Net-(EEPROM1-A6)*%
X123540000Y-47380000D02*
X123540000Y-45280000D01*
X143779300Y-80960000D02*
X143500000Y-80960000D01*
X145551700Y-79187600D02*
X143779300Y-80960000D01*
X145551700Y-71986700D02*
X145551700Y-79187600D01*
X136577600Y-63012600D02*
X145551700Y-71986700D01*
X136577600Y-48165100D02*
X136577600Y-63012600D01*
X132527400Y-44114900D02*
X136577600Y-48165100D01*
X124705100Y-44114900D02*
X132527400Y-44114900D01*
X123540000Y-45280000D02*
X124705100Y-44114900D01*
%TO.N,/D2*%
X143500000Y-103820000D02*
X145800000Y-103820000D01*
X176500000Y-99860000D02*
X174400000Y-99860000D01*
X173711200Y-99860000D02*
X173457900Y-100113300D01*
X174400000Y-99860000D02*
X173711200Y-99860000D01*
X145800000Y-103820000D02*
X145800000Y-112278900D01*
%TO.N,/D3*%
X176500000Y-102400000D02*
X174400000Y-102400000D01*
X158740000Y-106360000D02*
X158740000Y-108460000D01*
X163008100Y-108460000D02*
X166157900Y-111609800D01*
X158740000Y-108460000D02*
X163008100Y-108460000D01*
X174370700Y-102429300D02*
X173535500Y-102429300D01*
X174400000Y-102400000D02*
X174370700Y-102429300D01*
%TO.N,/D5*%
X191740000Y-89700000D02*
X189640000Y-89700000D01*
X158740000Y-101280000D02*
X161040000Y-101280000D01*
X186844100Y-92495900D02*
X189640000Y-89700000D01*
X186844100Y-102676700D02*
X186844100Y-92495900D01*
X179620500Y-109900300D02*
X186844100Y-102676700D01*
X169660300Y-109900300D02*
X179620500Y-109900300D01*
X161040000Y-101280000D02*
X169660300Y-109900300D01*
%TO.N,/D0*%
X173461800Y-94780000D02*
X170828800Y-97413000D01*
X176500000Y-94780000D02*
X173461800Y-94780000D01*
X143500000Y-98740000D02*
X145800000Y-98740000D01*
X146887700Y-98740000D02*
X155702100Y-107554400D01*
X145800000Y-98740000D02*
X146887700Y-98740000D01*
%TO.N,Net-(EEPROM1-A11)*%
X158740000Y-86040000D02*
X161040000Y-86040000D01*
X161325000Y-47180000D02*
X161325000Y-49280000D01*
X161507500Y-49280000D02*
X162118900Y-49891400D01*
X161325000Y-49280000D02*
X161507500Y-49280000D01*
X161040000Y-84276300D02*
X162654600Y-82661700D01*
X161040000Y-86040000D02*
X161040000Y-84276300D01*
%TO.N,/D4*%
X191740000Y-92240000D02*
X189640000Y-92240000D01*
X158740000Y-103820000D02*
X161040000Y-103820000D01*
X189640000Y-101865300D02*
X189640000Y-92240000D01*
X180203300Y-111302000D02*
X189640000Y-101865300D01*
X168522000Y-111302000D02*
X180203300Y-111302000D01*
X161040000Y-103820000D02*
X168522000Y-111302000D01*
%TO.N,/D1*%
X174077500Y-97320000D02*
X173595600Y-97801900D01*
X176500000Y-97320000D02*
X174077500Y-97320000D01*
X146252200Y-101280000D02*
X154975700Y-110003500D01*
X143500000Y-101280000D02*
X146252200Y-101280000D01*
%TO.N,/D6*%
X170797100Y-108497100D02*
X161040000Y-98740000D01*
X179040300Y-108497100D02*
X170797100Y-108497100D01*
X183918100Y-103619300D02*
X179040300Y-108497100D01*
X183918100Y-92881900D02*
X183918100Y-103619300D01*
X189640000Y-87160000D02*
X183918100Y-92881900D01*
X191740000Y-87160000D02*
X189640000Y-87160000D01*
X158740000Y-98740000D02*
X161040000Y-98740000D01*
%TO.N,Net-(EEPROM1-A12)*%
X162465600Y-79838100D02*
X162465600Y-79363200D01*
X174400000Y-91772500D02*
X162465600Y-79838100D01*
X174400000Y-92240000D02*
X174400000Y-91772500D01*
X141200000Y-72726900D02*
X140687800Y-72214700D01*
X141200000Y-75880000D02*
X141200000Y-72726900D01*
X143500000Y-75880000D02*
X141200000Y-75880000D01*
X176500000Y-92240000D02*
X174400000Y-92240000D01*
%TO.N,Net-(D3-A)*%
X192265000Y-63335000D02*
X192265000Y-53000000D01*
X178600000Y-77000000D02*
X192265000Y-63335000D01*
X176500000Y-77000000D02*
X178600000Y-77000000D01*
%TO.N,Net-(D3-K)*%
X187730000Y-53000000D02*
X187680000Y-53050000D01*
X189725000Y-53000000D02*
X187730000Y-53000000D01*
X185580000Y-53050000D02*
X187680000Y-53050000D01*
%TO.N,Net-(D2-A)*%
X191740000Y-102400000D02*
X193840000Y-102400000D01*
X195539600Y-51039600D02*
X192000000Y-47500000D01*
X195539600Y-100700400D02*
X195539600Y-51039600D01*
X193840000Y-102400000D02*
X195539600Y-100700400D01*
%TO.N,Net-(D2-K)*%
X189460000Y-47500000D02*
X185580000Y-47500000D01*
%TO.N,Net-(D1-K)*%
X189960000Y-42000000D02*
X185580000Y-42000000D01*
%TO.N,VCC*%
X117500000Y-79960000D02*
X117500000Y-77860000D01*
X125120000Y-82500000D02*
X123020000Y-82500000D01*
X117500000Y-79960000D02*
X117500000Y-82500000D01*
X123020000Y-82500000D02*
X119600000Y-82500000D01*
X117500000Y-82500000D02*
X119600000Y-82500000D01*
X158740000Y-73340000D02*
X158740000Y-71240000D01*
X148625000Y-47180000D02*
X148625000Y-48805000D01*
X148625000Y-48805000D02*
X148625000Y-49030200D01*
X148625000Y-49030200D02*
X148625000Y-49155100D01*
X148625000Y-49155100D02*
X148625000Y-49280000D01*
X166405000Y-47180000D02*
X166405000Y-49280000D01*
X163865000Y-51743100D02*
X163865000Y-54800000D01*
X161313100Y-51743100D02*
X163865000Y-51743100D01*
X158725100Y-49155100D02*
X161313100Y-51743100D01*
X148625000Y-49155100D02*
X158725100Y-49155100D01*
X163941900Y-51743100D02*
X166405000Y-49280000D01*
X163865000Y-51743100D02*
X163941900Y-51743100D01*
X128620000Y-52020000D02*
X128620000Y-52900000D01*
X131160000Y-49480000D02*
X128620000Y-52020000D01*
X131160000Y-47380000D02*
X131160000Y-49480000D01*
X191740000Y-74460000D02*
X193840000Y-74460000D01*
X113380000Y-47380000D02*
X113380000Y-45280000D01*
X166405000Y-47180000D02*
X166405000Y-45080000D01*
X171367100Y-40117900D02*
X166405000Y-45080000D01*
X176996600Y-40117900D02*
X171367100Y-40117900D01*
X183691800Y-46813100D02*
X176996600Y-40117900D01*
X183691800Y-48226700D02*
X183691800Y-46813100D01*
X184958400Y-49493300D02*
X183691800Y-48226700D01*
X191377100Y-49493300D02*
X184958400Y-49493300D01*
X194126600Y-52242800D02*
X191377100Y-49493300D01*
X194126600Y-74173400D02*
X194126600Y-52242800D01*
X193840000Y-74460000D02*
X194126600Y-74173400D01*
X192500000Y-42693100D02*
X192500000Y-42000000D01*
X191081100Y-44112000D02*
X192500000Y-42693100D01*
X186392900Y-44112000D02*
X191081100Y-44112000D01*
X183691800Y-46813100D02*
X186392900Y-44112000D01*
X128620000Y-53375000D02*
X128620000Y-53149800D01*
X128620000Y-53149800D02*
X128620000Y-52900000D01*
X116940700Y-53040700D02*
X113380000Y-49480000D01*
X128510900Y-53040700D02*
X116940700Y-53040700D01*
X128620000Y-53149800D02*
X128510900Y-53040700D01*
X113380000Y-47380000D02*
X113380000Y-49480000D01*
X128620000Y-54543100D02*
X128620000Y-53375000D01*
X128620000Y-54543100D02*
X128620000Y-55000000D01*
X114084900Y-71509300D02*
X116190600Y-71509300D01*
X113034400Y-72559800D02*
X114084900Y-71509300D01*
X113034400Y-94840100D02*
X113034400Y-72559800D01*
X115934300Y-97740000D02*
X113034400Y-94840100D01*
X117500000Y-97740000D02*
X115934300Y-97740000D01*
X117500000Y-72818700D02*
X117500000Y-77860000D01*
X116190600Y-71509300D02*
X117500000Y-72818700D01*
X128620000Y-59079900D02*
X128620000Y-55000000D01*
X116190600Y-71509300D02*
X128620000Y-59079900D01*
X146773300Y-51131700D02*
X148625000Y-49280000D01*
X146773300Y-57863900D02*
X146773300Y-51131700D01*
X158740000Y-69830600D02*
X146773300Y-57863900D01*
X158740000Y-71240000D02*
X158740000Y-69830600D01*
X120224800Y-38435200D02*
X113380000Y-45280000D01*
X159760200Y-38435200D02*
X120224800Y-38435200D01*
X166405000Y-45080000D02*
X159760200Y-38435200D01*
%TD*%
M02*
